<svg width="40" height="40" viewBox="0 0 40 40" fill="none" xmlns="http://www.w3.org/2000/svg">
<path d="M8.33073 31.6667H18.3307V35H11.6641C11.222 35 10.7981 35.1756 10.4856 35.4882C10.173 35.8007 9.9974 36.2246 9.9974 36.6667C9.9974 37.1087 10.173 37.5326 10.4856 37.8452C10.7981 38.1577 11.222 38.3333 11.6641 38.3333H28.3307C28.7728 38.3333 29.1967 38.1577 29.5092 37.8452C29.8218 37.5326 29.9974 37.1087 29.9974 36.6667C29.9974 36.2246 29.8218 35.8007 29.5092 35.4882C29.1967 35.1756 28.7728 35 28.3307 35H21.6641V31.6667H31.6641C33.5844 31.6642 35.4452 30.9999 36.9328 29.7855C38.4204 28.5711 39.4439 26.881 39.8307 25H0.164062C0.55089 26.881 1.57436 28.5711 3.06198 29.7855C4.54959 30.9999 6.41039 31.6642 8.33073 31.6667Z" fill="#09152F"/>
<path d="M31.6667 1.67188H8.33333C6.12401 1.67452 4.00593 2.55334 2.4437 4.11557C0.88147 5.6778 0.00264643 7.79588 0 10.0052L0 21.6719H40V10.0052C39.9974 7.79588 39.1185 5.6778 37.5563 4.11557C35.9941 2.55334 33.876 1.67452 31.6667 1.67188Z" fill="#09152F"/>
</svg>
