<svg width="394" height="252" viewBox="0 0 394 252" fill="none" xmlns="http://www.w3.org/2000/svg">
<ellipse cx="66.4366" cy="164.742" rx="35.0283" ry="29.6154" transform="rotate(-117.483 66.4366 164.742)" fill="url(#paint0_linear_547_47530)"/>
<ellipse cx="15.8565" cy="128.976" rx="9.55143" ry="12.965" transform="rotate(136.467 15.8565 128.976)" fill="url(#paint1_linear_547_47530)"/>
<path d="M319.47 249.004C319.474 249.194 319.506 249.611 319.276 250.074C319.112 250.403 318.876 250.699 318.649 250.937C317.597 250.77 316.039 250.459 314.235 249.838C311.357 248.848 309.792 248.332 309.665 247.37C309.661 247.345 309.609 246.882 309.922 246.523C310.586 245.762 312.364 246.071 314.9 246.536C315.555 246.656 316.091 246.774 316.45 246.858C316.549 246.041 316.648 245.224 316.747 244.408C317.615 244.402 318.481 244.396 319.348 244.391C319.422 246.495 319.452 248.121 319.47 249.004ZM303.334 250.065C303.338 250.256 303.37 250.674 303.141 251.135C302.976 251.464 302.74 251.761 302.513 251.999C301.461 251.833 299.903 251.52 298.099 250.899C295.221 249.91 293.656 249.393 293.529 248.432C293.525 248.407 293.473 247.943 293.786 247.584C294.45 246.824 296.228 247.132 298.764 247.597C299.419 247.717 299.955 247.836 300.314 247.919C300.413 247.103 300.512 246.285 300.611 245.469C301.479 245.463 302.345 245.458 303.212 245.452C303.286 247.556 303.316 249.182 303.334 250.065Z" fill="#2D1752"/>
<path d="M382.142 222.972C382.142 230.655 318.979 236.883 241.063 236.883C163.147 236.883 99.9844 230.655 99.9844 222.972C99.9844 215.29 163.147 209.062 241.063 209.062C318.979 209.062 382.142 215.29 382.142 222.972Z" fill="#ABDDE2"/>
<mask id="mask0_547_47530" style="mask-type:luminance" maskUnits="userSpaceOnUse" x="84" y="0" width="310" height="193">
<path d="M84 0H394V192.686H84V0Z" fill="white"/>
</mask>
<g mask="url(#mask0_547_47530)">
<mask id="mask1_547_47530" style="mask-type:luminance" maskUnits="userSpaceOnUse" x="84" y="0" width="310" height="193">
<path d="M101.94 30.8234C84.6981 50.5269 84.3624 73.3579 84.2352 81.9937C84.2352 81.9937 83.7537 114.771 106.367 143.236C151.472 200.015 274.887 210.152 345.877 161.771C357.768 153.667 389.62 131.959 393.393 96.096C397.367 58.3282 368.818 18.0129 335.694 10.2755C312.675 4.89789 277.333 12.8919 265.745 15.5133C257.375 17.406 256.447 18.1217 251.136 18.7366C223.565 21.929 210.287 7.09704 188.269 2.02693C182.894 0.789098 177.305 0.203125 171.638 0.203125C145.59 0.204123 117.911 12.5734 101.94 30.8234Z" fill="white"/>
</mask>
<g mask="url(#mask1_547_47530)">
<path d="M387.428 -49.7969L43.3438 6.84881L93.6876 260.139L437.772 203.494L387.428 -49.7969Z" fill="url(#paint2_linear_547_47530)"/>
</g>
</g>
<path d="M355.022 215.052C353.433 213.837 352.631 212.096 351.091 208.663C349.552 205.232 349.868 204.969 348.564 202.274C346.6 198.214 345.701 198.437 344.914 195.885C344.681 195.132 343.308 190.685 345.756 187.196C347.439 184.801 349.037 185.544 350.53 183.363C352.559 180.399 350.173 178.194 351.372 172.886C351.629 171.752 352.217 169.273 354.18 166.752C357.433 162.578 362.377 160.963 364.289 160.364C366.858 159.559 366.724 160.056 368.501 159.341C373.592 157.293 373.306 153.759 377.205 152.441C380.347 151.381 384.095 152.469 386.472 154.23C386.932 154.572 389.815 156.771 390.122 160.108C390.375 162.862 388.85 166.119 387.595 168.797C387.173 169.7 386.641 170.725 386.752 172.119C386.891 173.844 387.92 174.956 388.437 175.697C390.332 178.412 389.441 181.993 388.718 184.896C387.225 190.899 380.965 193.553 375.24 198.185C370.963 201.646 365.544 207.375 361.481 217.096C357.965 216.978 355.977 215.781 355.022 215.052Z" fill="#FFBC95"/>
<path d="M213.572 158.169L120.887 119.779C118.351 118.729 117.22 115.981 118.374 113.673L144.459 61.5112C145.613 59.2033 148.632 58.1741 151.168 59.2242L243.853 97.6129C246.39 98.6641 247.521 101.412 246.366 103.72L220.282 155.882C219.128 158.19 216.108 159.219 213.572 158.169Z" fill="#A5A5A5"/>
<path d="M213.57 158.175C186.542 146.979 159.513 135.785 132.484 124.589C150.158 107.544 167.832 90.4982 185.505 73.4531L243.851 97.6188C244.162 97.7485 245.774 98.4563 246.492 100.201C246.948 101.308 246.941 102.572 246.364 103.726L220.28 155.888C219.126 158.196 216.106 159.225 213.57 158.175Z" fill="#B8B8B8"/>
<path d="M149.996 102.051L138.062 97.1088C137.007 96.6715 136.536 95.5265 137.017 94.5662L140.906 86.7869C141.386 85.8266 142.643 85.3983 143.7 85.8355L155.633 90.7779C156.689 91.2151 157.159 92.3591 156.679 93.3204L152.789 101.099C152.309 102.06 151.052 102.488 149.996 102.051Z" fill="#C5C5C5"/>
<path d="M144.102 99.6123L143.844 99.5105L149.264 88.1484L149.521 88.2493L144.102 99.6123Z" fill="#707070"/>
<path d="M155.565 95.5468L139.741 89.132L139.856 88.8984L155.68 95.3132L155.565 95.5468ZM153.77 99.2153L137.914 92.7876L138.028 92.554L153.884 98.9818L153.77 99.2153Z" fill="#707070"/>
<path d="M325.934 231.888H181.017C173.145 231.888 166.703 226.026 166.703 218.86V120.013C166.703 112.847 173.145 106.984 181.017 106.984H325.934C333.807 106.984 340.248 112.847 340.248 120.013V218.86C340.248 226.026 333.807 231.888 325.934 231.888Z" fill="#FF6741"/>
<path d="M166.71 140.279C166.811 135.974 166.765 132.504 166.71 130.22C166.528 122.718 166.01 118.253 168.506 113.88C169.368 112.369 170.291 111.393 170.915 110.812C173.482 108.42 176.475 107.604 177.754 107.33C178.806 107.104 179.901 106.984 181.024 106.984H325.941C299.662 107.432 277.307 109.046 259.975 110.732C220.606 114.562 206.454 118.831 194.784 123.914C182.316 129.344 172.935 135.594 166.71 140.279Z" fill="#FF593E"/>
<path d="M206.778 112.47C206.76 112.337 206.749 112.202 206.749 112.066C206.749 111.944 206.757 111.823 206.771 111.703H193.34C193.354 111.823 193.361 111.944 193.361 112.066C193.361 112.202 193.35 112.337 193.332 112.47H206.778ZM227.189 112.47C227.141 112.251 227.115 112.027 227.115 111.798C227.115 111.766 227.119 111.735 227.12 111.703H214.591C214.604 111.823 214.611 111.944 214.611 112.066C214.611 112.202 214.6 112.337 214.583 112.47H227.189ZM247.782 112.47C247.779 112.425 247.774 112.38 247.774 112.335C247.774 112.119 247.8 111.909 247.843 111.703H234.97C234.972 111.735 234.977 111.766 234.977 111.798C234.977 112.027 234.949 112.251 234.901 112.47H247.782ZM255.629 112.47H265.852C265.805 112.251 265.778 112.027 265.778 111.798C265.778 111.766 265.782 111.735 265.783 111.703H255.569C255.611 111.909 255.636 112.119 255.636 112.335C255.636 112.38 255.631 112.425 255.629 112.47ZM285.265 112.47C285.264 112.425 285.257 112.38 285.257 112.335C285.257 112.119 285.283 111.909 285.326 111.703H273.635C273.636 111.735 273.64 111.766 273.64 111.798C273.64 112.027 273.613 112.251 273.565 112.47H285.265ZM293.112 112.47H305.277C305.177 112.224 305.105 111.969 305.068 111.703H293.052C293.094 111.909 293.119 112.119 293.119 112.335C293.119 112.38 293.114 112.425 293.112 112.47ZM324.232 111.703H312.859C312.821 111.969 312.748 112.224 312.647 112.47H323.702C323.844 112.195 324.02 111.937 324.232 111.703ZM334.211 121.352V122.945C334.481 122.854 334.763 122.789 335.054 122.755V121.352C335.054 118.359 333.549 115.68 331.192 113.909C331.192 113.921 331.194 113.934 331.194 113.946C331.194 114.249 331.144 114.542 331.062 114.825C332.997 116.45 334.211 118.774 334.211 121.352ZM335.054 138.581V129.85C334.763 129.816 334.481 129.752 334.211 129.662V138.706C334.483 138.636 334.765 138.594 335.054 138.581ZM334.641 154.42C334.78 154.42 334.918 154.428 335.054 154.442V145.719C334.765 145.708 334.483 145.666 334.211 145.597V154.444C334.353 154.43 334.496 154.42 334.641 154.42ZM334.936 171.343C334.976 171.343 335.014 171.348 335.054 171.349V161.555C334.918 161.568 334.78 161.576 334.641 161.576C334.496 161.576 334.353 161.567 334.211 161.553V171.409C334.447 171.368 334.689 171.343 334.936 171.343ZM334.936 187.996C334.976 187.996 335.014 188.001 335.054 188.002V178.493C335.014 178.494 334.976 178.498 334.936 178.498C334.689 178.498 334.447 178.474 334.211 178.432V188.063C334.447 188.021 334.689 187.996 334.936 187.996ZM334.936 204.919C334.976 204.919 335.014 204.924 335.054 204.925V195.147C335.014 195.148 334.976 195.152 334.936 195.152C334.689 195.152 334.447 195.128 334.211 195.086V204.986C334.447 204.944 334.689 204.919 334.936 204.919ZM334 221.695C334.674 220.426 335.054 219.004 335.054 217.502V212.069C335.014 212.07 334.976 212.074 334.936 212.074C334.689 212.074 334.447 212.05 334.211 212.008V217.502C334.211 218.835 333.885 220.1 333.304 221.236C333.554 221.366 333.786 221.521 334 221.695ZM283.079 226.384C283.08 226.421 283.085 226.457 283.085 226.494C283.085 226.717 283.058 226.937 283.012 227.151H292.349C292.363 226.888 292.408 226.632 292.483 226.384H283.079ZM265.647 226.384C265.663 226.509 265.671 226.635 265.671 226.762C265.671 226.893 265.662 227.023 265.645 227.151H275.295C275.249 226.937 275.223 226.717 275.223 226.494C275.223 226.457 275.227 226.421 275.228 226.384H265.647ZM248.778 226.384C248.821 226.595 248.848 226.81 248.848 227.031C248.848 227.072 248.842 227.111 248.841 227.151H257.834C257.819 227.023 257.809 226.893 257.809 226.762C257.809 226.635 257.818 226.509 257.833 226.384H248.778ZM213.702 226.384C213.717 226.509 213.726 226.635 213.726 226.762C213.726 226.893 213.716 227.023 213.7 227.151H223.598C223.582 227.023 223.573 226.893 223.573 226.762C223.573 226.635 223.582 226.509 223.596 226.384H213.702ZM195.993 226.384C196.009 226.509 196.017 226.635 196.017 226.762C196.017 226.893 196.007 227.023 195.991 227.151H205.889C205.874 227.023 205.864 226.893 205.864 226.762C205.864 226.635 205.873 226.509 205.888 226.384H195.993ZM185.498 112.066C185.498 111.944 185.506 111.823 185.52 111.703H182.501C179.424 111.703 176.65 112.904 174.711 114.816C174.963 114.938 175.2 115.084 175.417 115.252C177.197 113.541 179.714 112.47 182.501 112.47H185.527C185.509 112.337 185.498 112.202 185.498 112.066ZM171.898 121.426V203.973C172.17 203.904 172.452 203.864 172.741 203.853V121.546C172.451 121.534 172.17 121.494 171.898 121.426ZM172.741 210.992C172.451 210.981 172.17 210.94 171.898 210.872V217.502C171.898 218.234 171.992 218.947 172.163 219.633C172.41 219.503 172.672 219.395 172.946 219.316C172.812 218.73 172.741 218.124 172.741 217.502V210.992ZM188.155 226.762C188.155 226.635 188.164 226.509 188.179 226.384H182.501C180.529 226.384 178.69 225.847 177.154 224.928C176.976 225.131 176.776 225.32 176.555 225.487C178.251 226.537 180.299 227.151 182.501 227.151H188.181C188.165 227.023 188.155 226.894 188.155 226.762ZM241.057 226.384H231.411C231.426 226.509 231.435 226.635 231.435 226.762C231.435 226.893 231.425 227.023 231.409 227.151H240.993C240.991 227.111 240.985 227.072 240.985 227.031C240.985 226.81 241.012 226.595 241.057 226.384ZM310.416 226.384H300.063C300.137 226.632 300.182 226.888 300.194 227.151H310.352C310.35 227.111 310.345 227.072 310.345 227.031C310.345 226.81 310.371 226.595 310.416 226.384ZM327.837 225.833C326.782 226.189 325.641 226.384 324.451 226.384H318.137C318.181 226.595 318.207 226.81 318.207 227.031C318.207 227.072 318.201 227.111 318.2 227.151H324.451C325.803 227.151 327.094 226.917 328.283 226.497C328.109 226.291 327.959 226.069 327.837 225.833Z" fill="#82433C"/>
<path d="M205.463 155.617H202.052L166.706 130.219C166.682 156.356 166.657 182.493 166.633 208.63C178.439 201.034 190.245 193.436 202.052 185.839H205.463C210.199 185.839 214.052 182.332 214.052 178.021V163.435C214.052 159.124 210.199 155.617 205.463 155.617Z" fill="#CB4128"/>
<path d="M205.462 184.557H175.859C171.905 184.557 168.672 181.614 168.672 178.017V163.43C168.672 159.833 171.905 156.891 175.859 156.891H205.462C209.415 156.891 212.648 159.833 212.648 163.43V178.017C212.648 181.614 209.415 184.557 205.462 184.557Z" fill="#FF6741"/>
<path d="M210.092 170.724C210.092 177.177 204.343 182.408 197.253 182.408C190.162 182.408 184.414 177.177 184.414 170.724C184.414 164.271 190.162 159.039 197.253 159.039C204.343 159.039 210.092 164.271 210.092 170.724Z" fill="#283437"/>
<path d="M199.739 161.523C199.597 161.524 199.481 161.529 199.406 161.534C200.294 161.659 201.868 161.993 203.451 163.012C203.451 163.012 204.583 163.74 205.482 164.792C207.995 167.737 207.576 172.016 207.486 172.807C207.531 172.62 207.589 172.349 207.64 172.021C207.832 170.793 208.427 166.996 205.74 164.17C205.74 164.17 203.705 162.03 200.653 161.588C200.184 161.52 199.739 161.523 199.739 161.523Z" fill="#EAFC98"/>
<path d="M316.375 49.5185C316.375 65.6792 301.98 78.7802 284.223 78.7802C266.466 78.7802 252.07 65.6792 252.07 49.5185C252.07 33.3578 266.466 20.2578 284.223 20.2578C301.98 20.2578 316.375 33.3578 316.375 49.5185Z" fill="#D0AF17"/>
<path d="M313.96 45.9404C313.96 62.1011 299.565 75.2021 281.809 75.2021C264.051 75.2021 249.656 62.1011 249.656 45.9404C249.656 29.7797 264.051 16.6797 281.809 16.6797C299.565 16.6797 313.96 29.7797 313.96 45.9404Z" fill="#F3E61B"/>
<path d="M286.067 26.4002C289.362 26.6557 292.365 27.636 292.365 27.636C294.584 28.3588 296.326 29.2572 297.562 29.9959C295.796 28.5684 292.61 26.3852 288.031 25.2452C287.745 25.1743 286.075 24.7651 284.188 24.6033C278.983 24.1591 270.106 25.4329 264.13 31.8436C259.585 36.7191 258.989 42.1276 258.817 43.9314C258.268 49.7253 260.348 54.1475 261.375 56.0183C260.454 54.1186 258.303 48.9896 259.801 42.6776C260.821 38.3772 263.06 35.5342 263.713 34.7426C270.327 26.7176 281.615 26.0548 286.067 26.4002ZM303.582 52.0792C302.365 54.6916 299.036 60.4685 291.802 63.6658C285.42 66.4869 279.44 65.7781 275.972 65.3669C273.115 65.0285 270.778 64.4006 269.117 63.8595C278.845 68.5583 290.244 67.6549 297.609 61.7602C304.776 56.0242 305.292 47.8306 305.358 46.1066C305.147 47.5791 304.687 49.7033 303.582 52.0792Z" fill="#D1AC19"/>
<path d="M336.021 104.095C336.021 114.784 326.5 123.447 314.757 123.447C303.013 123.447 293.492 114.784 293.492 104.095C293.492 93.407 303.013 84.7422 314.757 84.7422C326.5 84.7422 336.021 93.407 336.021 104.095Z" fill="#D0AF17"/>
<path d="M334.427 101.727C334.427 112.415 324.907 121.08 313.163 121.08C301.419 121.08 291.898 112.415 291.898 101.727C291.898 91.0388 301.419 82.375 313.163 82.375C324.907 82.375 334.427 91.0388 334.427 101.727Z" fill="#F3E61B"/>
<path d="M315.98 88.812C318.16 88.9807 320.146 89.6285 320.146 89.6285C321.613 90.1067 322.765 90.7007 323.583 91.1898C322.416 90.2455 320.307 88.801 317.279 88.0483C317.09 88.0004 315.986 87.7299 314.737 87.6231C311.296 87.3296 305.425 88.1721 301.472 92.4117C298.467 95.636 298.072 99.2127 297.959 100.406C297.595 104.238 298.97 107.163 299.65 108.401C299.04 107.143 297.619 103.751 298.609 99.5771C299.284 96.7321 300.765 94.8524 301.196 94.3283C305.57 89.0216 313.035 88.5834 315.98 88.812ZM327.563 105.795C326.759 107.522 324.558 111.343 319.773 113.458C315.551 115.323 311.597 114.855 309.304 114.583C307.415 114.359 305.868 113.944 304.77 113.586C311.204 116.693 318.742 116.096 323.614 112.197C328.354 108.404 328.695 102.985 328.739 101.845C328.6 102.818 328.295 104.224 327.563 105.795Z" fill="#D1AC19"/>
<path d="M260.693 231.886H193.695C193.695 215.16 208.818 201.398 227.195 201.398C245.571 201.398 260.693 215.16 260.693 231.886Z" fill="#FF593E"/>
<path d="M252.888 229.243C252.888 241.178 242.257 250.853 229.143 250.853C216.03 250.853 205.398 241.178 205.398 229.243C205.398 217.308 216.03 207.633 229.143 207.633C242.257 207.633 252.888 217.308 252.888 229.243Z" fill="#D0AF17"/>
<path d="M251.107 226.602C251.107 238.537 240.476 248.212 227.362 248.212C214.248 248.212 203.617 238.537 203.617 226.602C203.617 214.667 214.248 204.992 227.362 204.992C240.476 204.992 251.107 214.667 251.107 226.602Z" fill="#F3E61B"/>
<path d="M230.512 212.167C232.946 212.356 235.164 213.079 235.164 213.079C236.801 213.614 238.088 214.277 239.001 214.822C237.697 213.768 235.344 212.156 231.962 211.315C231.75 211.262 230.517 210.959 229.124 210.84C225.28 210.512 218.725 211.452 214.311 216.187C210.954 219.788 210.514 223.782 210.388 225.114C209.981 229.393 211.518 232.659 212.277 234.041C211.595 232.637 210.007 228.85 211.114 224.188C211.867 221.012 213.521 218.912 214.003 218.328C218.887 212.402 227.223 211.913 230.512 212.167ZM243.446 231.132C242.548 233.06 240.09 237.327 234.747 239.689C230.034 241.772 225.618 241.249 223.057 240.945C220.946 240.695 219.22 240.231 217.993 239.832C225.178 243.301 233.596 242.635 239.036 238.281C244.328 234.045 244.71 227.994 244.759 226.721C244.603 227.809 244.263 229.377 243.446 231.132Z" fill="#D1AC19"/>
<path d="M125.184 216.592C126.227 215.203 127.535 213.551 129.115 211.737C131.255 209.279 132.675 207.648 134.731 205.859C139.274 201.903 141.358 202.014 142.593 199.215C142.792 198.765 144.164 195.527 142.312 193.593C140.934 192.151 138.269 191.96 136.416 192.57C133.824 193.424 133.343 195.669 131.785 195.475C130.676 195.338 129.679 194.05 129.684 192.904C129.693 191.117 132.139 189.904 134.169 188.737C134.169 188.737 139.482 185.681 144.278 181.071C149.153 176.382 152.365 168.401 149.332 165.226C147.918 163.747 145.231 163.396 143.335 163.827C140.851 164.392 138.871 166.892 135.012 171.871C133.064 174.383 132.291 175.616 131.642 175.448C130.404 175.127 130.992 170.077 131.08 169.315C131.91 162.184 134.499 160.387 135.854 155.004C137.744 147.49 135.864 138.398 131.642 137.116C130.489 136.765 129.434 137.08 128.504 137.369C119.62 140.135 117.431 155.31 116.479 161.904C116.211 163.754 116.109 165.121 116.072 166.327C115.905 171.677 116.933 176.069 117.883 179.026C115.231 173.364 114.599 168.699 114.513 165.482C114.305 157.623 117.179 151.742 113.968 149.524C112.354 148.408 110.058 148.811 109.74 148.871C106.873 149.41 105.319 151.933 104.405 153.471C103.35 155.245 101.372 159.328 102.158 166.249C103.106 174.58 107.359 180.854 110.301 184.393C107.348 179.897 104.239 176.753 101.878 174.682C97.569 170.903 95.8503 170.783 94.8576 171.079C93.254 171.56 92.597 173.418 92.3304 174.171C89.8515 181.177 100.651 197.937 103.001 201.515C100.81 199.5 97.3661 197.109 92.892 196.659C91.6109 196.531 89.2801 196.296 88.3993 197.426C87.3605 198.757 88.8896 201.273 90.0841 203.048C92.133 206.091 96.3976 211.704 105.247 219.915C111.893 218.806 118.538 217.699 125.184 216.592Z" fill="#FFBC95"/>
<path d="M132.105 216.521C132.069 213.588 132.032 210.656 131.995 207.723C128.779 206.342 124.629 203.882 121.96 199.599C120 196.453 118.218 191.328 120.042 190.062C121.407 189.115 124.298 190.672 124.912 191.003C130.919 194.237 131.704 201.909 131.848 203.896C132.029 202.642 132.171 200.788 131.848 198.59C131.559 196.635 131.039 195.344 130.473 193.774C129.175 190.164 128.244 187.581 127.863 184.959C127.254 180.774 127.857 175.302 130.076 174.752C130.524 174.64 130.914 174.76 131.165 174.84C134.623 175.944 134.835 183.436 134.873 184.758C135.01 189.604 133.784 191.086 133.232 197.916C133.025 200.478 133.01 202.573 133.028 203.896C133.401 201.701 134.444 198.142 137.676 195.569C138.073 195.252 141.742 192.383 143.58 193.42C144.516 193.949 144.587 195.271 144.613 195.77C144.882 200.851 135.404 206.482 133.249 207.723C133.453 209.408 133.86 211.401 134.651 213.566C135.037 214.623 135.467 215.587 135.906 216.453C134.639 216.476 133.372 216.498 132.105 216.521ZM354.21 214.618C354.248 211.686 354.284 208.754 354.321 205.822C357.538 204.44 361.688 201.979 364.356 197.696C366.315 194.551 368.098 189.426 366.275 188.161C364.909 187.213 362.019 188.77 361.405 189.101C355.397 192.334 354.612 200.007 354.469 201.994C354.287 200.741 354.145 198.886 354.469 196.689C354.757 194.732 355.278 193.442 355.843 191.872C357.142 188.262 358.071 185.679 358.453 183.057C359.062 178.872 358.459 173.401 356.24 172.85C355.792 172.739 355.403 172.858 355.15 172.938C351.693 174.042 351.48 181.533 351.443 182.856C351.306 187.702 352.532 189.184 353.085 196.013C353.292 198.576 353.305 200.672 353.288 201.994C352.915 199.799 351.872 196.24 348.639 193.667C348.242 193.351 344.574 190.482 342.737 191.518C341.8 192.047 341.73 193.37 341.704 193.869C341.435 198.95 350.913 204.58 353.066 205.822C352.863 207.507 352.456 209.499 351.665 211.663C351.278 212.722 350.85 213.684 350.411 214.551C351.677 214.574 352.943 214.596 354.21 214.618Z" fill="#FD5869"/>
<path d="M311.631 200.769C312.227 202.013 313.095 204.065 313.636 206.69C314.922 212.926 313.005 215.791 313.144 222.963C313.242 227.996 314.3 231.852 314.841 233.842C315.906 237.757 317.297 240.885 320.079 247.138C320.913 249.012 321.635 250.559 322.146 251.638C320.933 250.535 318.543 248.658 314.914 247.541C312.1 246.675 309.628 246.601 308.052 246.669C307.586 245.482 306.941 243.702 306.355 241.498C305.559 238.496 305.585 237.392 304.732 231.895C303.68 225.11 303.007 223.062 302.592 221.688C302.229 220.48 301.596 218.717 300.453 216.651C298.903 211.302 297.353 205.951 295.805 200.602L311.631 200.769Z" fill="#2D1752"/>
<path d="M313.218 236.528C314.916 238.763 317.52 242.12 320.08 247.138C321.022 248.984 321.702 250.554 322.146 251.638C320.933 250.535 318.543 248.658 314.916 247.541C312.1 246.675 309.629 246.601 308.053 246.669C307.587 245.482 306.942 243.702 306.356 241.498C305.56 238.496 305.585 237.392 304.733 231.895C304.255 228.814 303.931 226.384 302.986 223.022C302.828 222.462 302.689 222 302.594 221.688C307.155 228.385 310.686 233.195 313.218 236.528Z" fill="#3D2570"/>
<path d="M291.153 200.469C291.06 200.778 290.459 202.796 290.365 203.11C289.697 205.35 289.12 207.292 289.086 207.408C288.047 210.926 289.429 217.916 290.07 221.599C291.026 227.083 292.023 233 291.595 239.753C291.372 243.275 290.819 246.114 290.415 247.878C291.926 247.777 293.78 247.788 295.858 248.104C300.301 248.781 303.571 250.52 305.462 251.736C303.828 246.365 302.98 241.681 302.515 238.029C302 233.977 301.841 230.283 301.925 226.837C302.001 223.758 302.057 221.928 302.663 219.472C303.619 215.603 304.875 214.493 305.861 211.526C306.658 209.125 307.26 205.559 306.153 200.689C301.152 200.616 296.152 200.543 291.153 200.469Z" fill="#2D1752"/>
<path d="M290.365 203.109C290.291 203.093 289.781 205.058 289.086 207.407C288.047 210.926 289.429 217.916 290.07 221.598C291.026 227.082 292.023 232.999 291.595 239.752C291.372 243.274 290.819 246.113 290.415 247.877C291.926 247.776 293.78 247.787 295.858 248.104C300.301 248.78 303.571 250.519 305.462 251.735C304.962 247.656 304.07 243.024 302.515 238.028C299.483 228.278 295 220.576 291.078 215.04C290.551 213.936 289.917 212.303 289.677 210.272C289.216 206.371 290.462 203.129 290.365 203.109Z" fill="#3D2570"/>
<path d="M289.455 202.534C289.742 203.701 289.968 204.622 290.009 205.858C290.062 207.475 289.769 208.81 289.492 209.719C290.129 208.546 290.438 207.563 290.599 206.932C291.293 204.217 291.128 200.716 291.331 199.44C291.338 199.396 291.386 199.105 291.441 198.703C291.499 198.297 291.538 197.963 291.563 197.744C291.297 197.716 290.945 197.652 290.562 197.497C289.838 197.203 289.404 196.745 289.197 196.489C288.853 197.195 288.508 197.9 288.164 198.606C288.808 200.161 289.204 201.51 289.455 202.534ZM292.775 159.567C292.58 160.105 292.334 160.871 292.142 161.806C291.722 163.859 291.031 167.237 292.775 168.431C293.008 168.59 294.157 169.31 296.76 168.431C296.834 169.107 296.964 170.709 296.612 172.035C296.494 172.484 296.326 172.879 295.924 173.109C295.583 173.306 295.208 173.307 294.99 173.289C295.527 173.717 296.525 174.381 297.94 174.632C301.223 175.215 303.755 173.048 304.04 172.796C303.386 172.878 302.989 172.739 302.761 172.617C301.993 172.207 301.908 171.334 301.286 168.498C301.005 167.221 301.052 167.534 300.941 166.976C300.238 163.446 300.66 162.495 300.154 161.56C299.602 160.535 297.917 159.485 292.775 159.567Z" fill="#FFBC95"/>
<path d="M292.781 159.562C292.923 159.07 293.206 158.339 293.814 157.615C295.471 155.646 298.13 155.404 298.93 155.331C299.449 155.284 302.255 155.075 304.735 156.719C307.78 158.739 308.318 162.219 308.769 165.136C309.059 167.014 309.014 168.602 308.916 169.702C305.867 169.672 302.816 169.642 299.767 169.612L299.078 164.956C300.028 164.435 300.587 163.673 300.461 162.989C300.404 162.672 300.165 162.18 299.767 162.136C299.38 162.093 298.896 162.476 298.734 163.121C297.63 163.129 296.938 162.847 296.505 162.575C295.39 161.878 295.296 160.833 293.913 160.032C293.472 159.777 293.062 159.639 292.781 159.562Z" fill="#783A16"/>
<path d="M294.995 173.296C293.772 173.342 291.954 173.537 289.92 174.259C286.134 175.606 283.994 177.934 283.115 178.914C278.813 183.713 278.956 189.451 279.057 191.069C280.785 192.668 282.571 194.434 284.37 196.374C285.76 197.873 287.036 199.345 288.207 200.772C288.772 199.407 289.338 198.042 289.904 196.676C288.539 195.263 287.175 193.841 285.809 192.412C285.081 191.65 284.355 190.889 283.632 190.129C283.682 189.258 283.987 185.971 286.878 183.615C287.941 182.749 289.05 182.256 289.904 181.97C290.636 184.172 291.331 186.937 291.638 190.163C292.028 194.278 291.661 197.81 291.158 200.47C297.983 200.571 304.808 200.672 311.634 200.772C310.253 196.646 309.971 193.271 309.973 190.934C309.978 186.073 311.218 182.968 310.6 176.866C310.42 175.089 310.142 173.642 309.937 172.703C307.973 172.736 306.009 172.77 304.045 172.803C303.679 173.138 302.131 174.474 299.644 174.617C297.13 174.76 295.398 173.586 294.995 173.296Z" fill="#B76BEC"/>
<path d="M289.898 181.969C290.631 184.171 291.325 186.936 291.633 190.161C292.024 194.277 291.657 197.809 291.152 200.469C294.301 200.515 297.449 200.562 300.597 200.608C299.56 199.502 298.519 198.289 297.505 196.962C293.431 191.636 291.184 186.316 289.898 181.969Z" fill="#C676EF"/>
<path d="M294.995 173.297C293.772 173.343 291.954 173.537 289.92 174.26C286.134 175.607 283.994 177.935 283.115 178.915C278.813 183.714 278.956 189.452 279.057 191.07C280.785 192.669 282.571 194.435 284.37 196.374C285.76 197.874 287.036 199.346 288.207 200.773C286.681 197.225 285.156 193.677 283.632 190.129C283.336 188.812 282.69 185.04 284.812 180.996C287.82 175.266 293.989 173.558 294.995 173.297Z" fill="#C676EF"/>
<path d="M312.181 197.33C311.933 198.504 311.738 199.431 311.739 200.667C311.74 202.286 312.078 203.612 312.384 204.512C311.728 203.359 311.377 202.387 311.184 201.758C310.32 198.937 310.425 195.85 310.176 194.416C310.162 194.331 310.103 194.003 310.067 193.556C310.037 193.17 310.037 192.854 310.041 192.656C310.295 192.587 310.592 192.484 310.907 192.326C311.558 191.997 311.986 191.577 312.237 191.281C312.605 191.977 312.972 192.672 313.341 193.367C312.748 194.94 312.398 196.3 312.181 197.33Z" fill="#FFBC95"/>
<path d="M309.93 172.703C311.433 173.236 314.034 174.384 316.275 176.765C320.385 181.133 320.165 186.333 320.076 187.577C317.712 189.21 314.963 191.663 313.066 195.199C312.778 195.734 312.528 196.262 312.309 196.78C312.021 195.198 311.735 193.616 311.449 192.035C312.183 191.029 313.167 189.883 314.472 188.752C315.061 188.242 315.644 187.797 316.202 187.409C316.185 187.085 315.947 183.443 312.881 181.936C311.991 181.499 311.106 181.36 310.409 181.332" fill="#C676EF"/>
<path d="M312.954 179.015C317.844 181.293 319.599 185.976 320.111 187.577C319.549 187.951 318.955 188.384 318.345 188.881C317.611 189.48 316.982 190.071 316.444 190.625C316.548 189.317 316.411 188.225 316.237 187.409C315.918 185.914 315.353 183.134 312.917 181.936C312.027 181.498 311.141 181.36 310.444 181.332L310.266 178.109C311.124 178.299 312.034 178.587 312.954 179.015Z" fill="#B76BEC"/>
<path d="M226.307 159.741L158.47 77.3576C156.614 75.1037 157.121 71.8771 159.597 70.188L215.557 32.0174C218.033 30.3284 221.578 30.7908 223.434 33.0447L291.272 115.427C293.128 117.683 292.621 120.91 290.144 122.598L234.185 160.769C231.709 162.458 228.164 161.995 226.307 159.741Z" fill="#E1005F"/>
<path d="M226.305 159.745C206.523 135.72 186.74 111.696 166.957 87.6713C194.16 79.6381 221.363 71.604 248.564 63.5703L291.269 115.431C291.496 115.708 292.652 117.18 292.331 119.229C292.126 120.529 291.38 121.757 290.142 122.601L234.182 160.772C231.706 162.461 228.161 161.999 226.305 159.745Z" fill="#FF007F"/>
<path d="M197.215 74.2113L188.48 63.6044C187.708 62.6663 187.92 61.3223 188.95 60.6196L197.295 54.9265C198.326 54.2239 199.801 54.4165 200.574 55.3552L209.308 65.9615C210.082 66.9001 209.87 68.2432 208.839 68.9468L200.495 74.639C199.464 75.3426 197.988 75.15 197.215 74.2113Z" fill="white"/>
<path d="M192.898 68.9661L192.706 68.7418L204.641 60.3006L204.832 60.5234L192.898 68.9661Z" fill="white"/>
<path d="M206.45 70.5695L194.787 56.6404L195.035 56.4682L206.699 70.3978L206.45 70.5695ZM202.554 73.2735L190.866 59.3159L191.114 59.1436L202.801 73.1013L202.554 73.2735Z" fill="white"/>
<path d="M239.893 139.555C239.893 143.412 236.459 146.538 232.222 146.538C227.985 146.538 224.549 143.412 224.549 139.555C224.549 135.699 227.985 132.574 232.222 132.574C236.459 132.574 239.893 135.699 239.893 139.555Z" fill="#E1005F"/>
<ellipse cx="232.451" cy="139.121" rx="8.7324" ry="7.94952" fill="white"/>
<path d="M277.823 53.3213C277.535 53.2085 277.366 52.9366 277.316 52.5053C277.271 52.0575 277.288 51.5611 277.366 51.0163C277.448 50.4547 277.52 49.9349 277.581 49.4566L277.844 47.5913L275.026 47.0026C274.454 47.7777 273.909 48.5669 273.39 49.3704C272.871 50.1739 272.522 50.8902 272.343 51.5193C272.128 51.825 271.879 51.9484 271.597 51.8895C271.184 51.8032 270.847 51.6101 270.586 51.3101C270.326 51.0102 270.254 50.627 270.372 50.1605C270.448 49.8607 270.593 49.5579 270.809 49.2522C271.006 48.9425 271.282 48.5531 271.638 48.0837C271.993 47.6144 272.39 47.101 272.827 46.5435L270.629 46.0843C270.497 46.0568 270.492 45.9593 270.614 45.7918C270.735 45.6242 270.903 45.4665 271.119 45.3186C271.357 45.1579 271.542 45.0913 271.673 45.1188L273.646 45.5308C273.845 45.2918 274.044 45.0527 274.243 44.8136C274.446 44.5579 274.646 44.3105 274.845 44.0714L272.252 43.5298C272.121 43.5024 272.116 43.4049 272.237 43.2373C272.358 43.0698 272.527 42.912 272.742 42.7641C272.98 42.6034 273.165 42.5368 273.297 42.5643L275.692 43.0647C276.172 42.4983 276.644 41.957 277.111 41.4407C277.577 40.9243 277.989 40.4668 278.347 40.068C278.929 39.488 279.425 39.0481 279.837 38.7483C280.268 38.4524 280.709 38.3516 281.16 38.4458C281.216 38.4576 281.272 38.4693 281.329 38.4811C281.385 38.4929 281.439 38.513 281.492 38.5414C282.305 38.9218 282.63 39.4369 282.467 40.0866C282.349 40.5531 282.214 41.165 282.063 41.9225C281.93 42.684 281.789 43.4787 281.639 44.3068L283.443 44.6835C283.941 44.1211 284.435 43.5754 284.924 43.0463C285.418 42.5005 285.89 42.0028 286.339 41.5531C287.025 40.8722 287.593 40.3857 288.042 40.0938C288.327 39.9077 288.61 39.844 288.892 39.9029C289.061 39.9382 289.229 40.0172 289.396 40.1397C289.6 40.2701 289.73 40.4201 289.787 40.5896C289.862 40.7631 289.878 40.9331 289.836 41.0997C289.773 41.3496 289.62 41.5632 289.378 41.7405C288.953 42.0903 288.418 42.5659 287.772 43.1675C287.148 43.7563 286.476 44.4226 285.754 45.1662L287.643 45.5606C287.793 45.592 287.847 45.691 287.805 45.8576C287.763 46.0242 287.64 46.2001 287.435 46.3852C287.234 46.5537 287.058 46.6223 286.908 46.5909L284.851 46.1612C284.664 46.3503 284.488 46.5413 284.32 46.7343L283.567 47.6029L286.019 48.1151C286.169 48.1465 286.224 48.2455 286.182 48.4121C286.14 48.5786 286.016 48.7545 285.811 48.9397C285.61 49.1082 285.435 49.1768 285.285 49.1454L282.748 48.6156C282.342 49.127 281.955 49.6424 281.587 50.1617C281.237 50.685 280.92 51.1974 280.635 51.6991C280.618 51.7657 280.611 51.8343 280.613 51.9049C280.615 51.9755 280.605 52.0524 280.584 52.1357C280.534 52.3356 280.36 52.5536 280.063 52.7897C279.766 53.0258 279.414 53.2065 279.007 53.3319C278.622 53.4445 278.228 53.441 277.823 53.3213ZM275.845 45.99L278.015 46.4433L278.227 44.7778L277.072 44.5365C276.886 44.7256 276.691 44.948 276.488 45.2037C276.289 45.4428 276.075 45.7049 275.845 45.99ZM281.228 47.1143L281.369 47.1438C281.568 46.9047 281.766 46.6656 281.965 46.4266C282.187 46.1748 282.397 45.9293 282.596 45.6902L281.468 45.4548L281.228 47.1143Z" fill="#CAAA17"/>
<path d="M231.217 233.757C230.935 233.864 230.611 233.788 230.246 233.527C229.87 233.252 229.5 232.905 229.133 232.487C228.757 232.054 228.406 231.656 228.079 231.293L226.822 229.861L224.459 231.258C224.668 232.147 224.906 233.029 225.173 233.905C225.439 234.78 225.754 235.487 226.117 236.027C226.206 236.372 226.133 236.614 225.897 236.754C225.55 236.958 225.173 237.042 224.766 237.005C224.358 236.968 224.015 236.754 223.736 236.363C223.556 236.111 223.422 235.813 223.333 235.469C223.228 235.134 223.115 234.694 222.995 234.149C222.875 233.604 222.749 233.004 222.616 232.348L220.773 233.437C220.663 233.502 220.585 233.439 220.538 233.249C220.491 233.058 220.484 232.844 220.516 232.606C220.554 232.345 220.628 232.182 220.738 232.117L222.392 231.139C222.343 230.851 222.293 230.562 222.244 230.274C222.185 229.971 222.131 229.675 222.081 229.387L219.908 230.672C219.797 230.737 219.719 230.674 219.672 230.483C219.626 230.292 219.618 230.078 219.65 229.841C219.688 229.58 219.762 229.417 219.873 229.352L221.881 228.165C221.77 227.476 221.674 226.808 221.592 226.161C221.511 225.513 221.438 224.941 221.374 224.443C221.321 223.679 221.32 223.065 221.368 222.599C221.432 222.124 221.653 221.775 222.031 221.552C222.078 221.524 222.126 221.496 222.173 221.468C222.22 221.44 222.272 221.419 222.33 221.405C223.174 221.144 223.79 221.286 224.179 221.831C224.459 222.222 224.838 222.722 225.318 223.332C225.814 223.933 226.33 224.561 226.866 225.217L228.378 224.323C228.283 223.625 228.198 222.941 228.122 222.27C228.037 221.586 227.973 220.948 227.932 220.357C227.873 219.458 227.883 218.767 227.963 218.283C228.013 217.976 228.155 217.752 228.392 217.613C228.533 217.529 228.708 217.475 228.915 217.452C229.154 217.41 229.358 217.429 229.526 217.508C229.711 217.577 229.853 217.682 229.952 217.822C230.102 218.031 230.163 218.273 230.135 218.548C230.116 219.056 230.12 219.719 230.145 220.538C230.175 221.334 230.233 222.214 230.316 223.178L231.899 222.242C232.025 222.167 232.138 222.2 232.237 222.34C232.337 222.479 232.389 222.677 232.392 222.933C232.386 223.175 232.32 223.334 232.194 223.408L230.469 224.428C230.488 224.675 230.516 224.917 230.551 225.154L230.709 226.222L232.764 225.007C232.89 224.933 233.003 224.965 233.103 225.105C233.203 225.245 233.254 225.442 233.258 225.699C233.252 225.941 233.185 226.099 233.059 226.173L230.933 227.431C231.051 228.036 231.186 228.632 231.336 229.218C231.501 229.795 231.681 230.345 231.874 230.866C231.914 230.922 231.962 230.973 232.017 231.02C232.073 231.066 232.126 231.125 232.175 231.194C232.295 231.362 232.345 231.62 232.326 231.969C232.306 232.319 232.207 232.665 232.027 233.01C231.853 233.331 231.583 233.58 231.217 233.757ZM224.235 230.05L226.054 228.974L224.917 227.71L223.948 228.283C223.967 228.53 224.007 228.805 224.066 229.107C224.115 229.396 224.172 229.71 224.235 230.05ZM228.748 227.382L228.866 227.312C228.817 227.023 228.767 226.735 228.718 226.446C228.675 226.134 228.628 225.834 228.579 225.545L227.634 226.104L228.748 227.382Z" fill="#CAAA17"/>
<path d="M318.957 99.1993C319.009 99.4055 318.905 99.6166 318.643 99.8328C318.369 100.054 318.035 100.263 317.643 100.46C317.238 100.661 316.865 100.851 316.524 101.027L315.183 101.703L316.034 103.494C316.794 103.465 317.552 103.415 318.307 103.345C319.063 103.274 319.687 103.15 320.178 102.971C320.474 102.954 320.664 103.035 320.749 103.214C320.874 103.477 320.895 103.745 320.812 104.018C320.73 104.292 320.509 104.499 320.151 104.639C319.921 104.73 319.658 104.784 319.363 104.801C319.073 104.83 318.696 104.85 318.231 104.863C317.767 104.875 317.255 104.885 316.697 104.892L317.361 106.289C317.4 106.373 317.339 106.418 317.175 106.426C317.012 106.433 316.834 106.411 316.643 106.359C316.432 106.3 316.308 106.228 316.268 106.145L315.672 104.891C315.428 104.888 315.184 104.884 314.94 104.881C314.683 104.883 314.432 104.882 314.188 104.879L314.97 106.527C315.01 106.611 314.948 106.657 314.784 106.664C314.621 106.672 314.444 106.649 314.252 106.597C314.042 106.538 313.917 106.467 313.877 106.383L313.154 104.86C312.572 104.848 312.009 104.829 311.465 104.802C310.921 104.775 310.439 104.751 310.02 104.732C309.384 104.67 308.877 104.593 308.499 104.501C308.116 104.396 307.856 104.201 307.72 103.914C307.703 103.878 307.686 103.842 307.669 103.807C307.652 103.771 307.641 103.732 307.637 103.692C307.53 103.082 307.726 102.679 308.224 102.483C308.582 102.342 309.043 102.147 309.608 101.897C310.166 101.635 310.75 101.363 311.36 101.08L310.815 99.9339C310.227 99.9099 309.652 99.881 309.09 99.847C308.514 99.818 307.98 99.7799 307.488 99.7327C306.739 99.6585 306.17 99.5632 305.781 99.4469C305.534 99.3739 305.368 99.2479 305.283 99.0687C305.232 98.9613 305.21 98.8352 305.217 98.6907C305.213 98.5222 305.255 98.3855 305.341 98.2806C305.423 98.1636 305.527 98.0801 305.655 98.0298C305.847 97.9544 306.054 97.9437 306.277 97.9978C306.693 98.0752 307.241 98.1575 307.919 98.245C308.58 98.3255 309.313 98.3988 310.118 98.4649L309.548 97.2646C309.503 97.1691 309.544 97.0962 309.672 97.0459C309.8 96.9956 309.969 96.9856 310.181 97.0158C310.38 97.051 310.502 97.1164 310.547 97.2119L311.168 98.5197C311.374 98.5379 311.577 98.5502 311.778 98.5565L312.679 98.5849L311.939 97.0263C311.893 96.9308 311.935 96.8579 312.063 96.8076C312.19 96.7573 312.36 96.7473 312.572 96.7775C312.771 96.8127 312.893 96.8781 312.938 96.9736L313.704 98.5859C314.218 98.5822 314.726 98.5665 315.229 98.5389C315.726 98.4994 316.202 98.447 316.657 98.3816C316.708 98.3615 316.756 98.3354 316.802 98.3034C316.847 98.2713 316.902 98.2427 316.966 98.2176C317.119 98.1573 317.339 98.1561 317.624 98.2139C317.909 98.2718 318.183 98.384 318.444 98.5506C318.687 98.7103 318.858 98.9265 318.957 99.1993ZM315.009 103.493L314.354 102.114L313.167 102.73L313.516 103.464C313.722 103.482 313.953 103.491 314.21 103.489C314.454 103.492 314.721 103.493 315.009 103.493ZM313.385 100.072L313.342 99.9822C313.098 99.979 312.854 99.9759 312.609 99.9727C312.346 99.9626 312.093 99.956 311.849 99.9528L312.189 100.669L313.385 100.072Z" fill="#CAAA17"/>
<defs>
<linearGradient id="paint0_linear_547_47530" x1="31.4083" y1="164.742" x2="101.465" y2="164.742" gradientUnits="userSpaceOnUse">
<stop stop-color="#B9E1E4"/>
<stop offset="1" stop-color="#F0ECED"/>
</linearGradient>
<linearGradient id="paint1_linear_547_47530" x1="6.30503" y1="128.976" x2="25.4079" y2="128.976" gradientUnits="userSpaceOnUse">
<stop stop-color="#B9E1E4"/>
<stop offset="0.505" stop-color="#F0ECED"/>
</linearGradient>
<linearGradient id="paint2_linear_547_47530" x1="217.667" y1="-21.8496" x2="259.593" y2="232.826" gradientUnits="userSpaceOnUse">
<stop stop-color="#ABDDE2"/>
<stop offset="0.25" stop-color="#ABDDE2"/>
<stop offset="0.3125" stop-color="#ABDDE2"/>
<stop offset="0.328125" stop-color="#ABDDE2"/>
<stop offset="0.335938" stop-color="#ABDDE2"/>
<stop offset="0.339844" stop-color="#ADDDE2"/>
<stop offset="0.34375" stop-color="#AEDEE2"/>
<stop offset="0.347656" stop-color="#AFDEE3"/>
<stop offset="0.351562" stop-color="#B0DEE3"/>
<stop offset="0.355469" stop-color="#B1DEE3"/>
<stop offset="0.359375" stop-color="#B2DEE3"/>
<stop offset="0.363281" stop-color="#B4DFE3"/>
<stop offset="0.367188" stop-color="#B5DFE3"/>
<stop offset="0.371094" stop-color="#B6DFE3"/>
<stop offset="0.375" stop-color="#B7DFE4"/>
<stop offset="0.378906" stop-color="#B8E0E4"/>
<stop offset="0.382813" stop-color="#BAE0E4"/>
<stop offset="0.386719" stop-color="#BBE0E4"/>
<stop offset="0.390625" stop-color="#BCE0E4"/>
<stop offset="0.394531" stop-color="#BDE1E4"/>
<stop offset="0.398438" stop-color="#BEE1E5"/>
<stop offset="0.402344" stop-color="#C0E1E5"/>
<stop offset="0.40625" stop-color="#C1E1E5"/>
<stop offset="0.410156" stop-color="#C2E1E5"/>
<stop offset="0.414063" stop-color="#C3E2E5"/>
<stop offset="0.417969" stop-color="#C4E2E5"/>
<stop offset="0.421875" stop-color="#C6E2E6"/>
<stop offset="0.425781" stop-color="#C7E2E6"/>
<stop offset="0.429688" stop-color="#C8E3E6"/>
<stop offset="0.433594" stop-color="#C9E3E6"/>
<stop offset="0.4375" stop-color="#CBE3E6"/>
<stop offset="0.441406" stop-color="#CCE3E6"/>
<stop offset="0.445313" stop-color="#CDE4E7"/>
<stop offset="0.449219" stop-color="#CEE4E7"/>
<stop offset="0.453125" stop-color="#CFE4E7"/>
<stop offset="0.457031" stop-color="#D1E4E7"/>
<stop offset="0.460938" stop-color="#D2E5E7"/>
<stop offset="0.464844" stop-color="#D3E5E7"/>
<stop offset="0.46875" stop-color="#D4E5E8"/>
<stop offset="0.472656" stop-color="#D6E5E8"/>
<stop offset="0.476562" stop-color="#D7E6E8"/>
<stop offset="0.480469" stop-color="#D8E6E8"/>
<stop offset="0.484375" stop-color="#D9E6E8"/>
<stop offset="0.488281" stop-color="#DBE6E8"/>
<stop offset="0.492188" stop-color="#DCE6E9"/>
<stop offset="0.496094" stop-color="#DDE7E9"/>
<stop offset="0.5" stop-color="#DEE7E9"/>
<stop offset="0.503906" stop-color="#E0E7E9"/>
<stop offset="0.507813" stop-color="#E1E7E9"/>
<stop offset="0.511719" stop-color="#E2E8E9"/>
<stop offset="0.515625" stop-color="#E3E8EA"/>
<stop offset="0.519531" stop-color="#E5E8EA"/>
<stop offset="0.523438" stop-color="#E6E8EA"/>
<stop offset="0.527344" stop-color="#E7E9EA"/>
<stop offset="0.53125" stop-color="#E8E9EA"/>
<stop offset="0.535156" stop-color="#E9E9EA"/>
<stop offset="0.539062" stop-color="#EBE9EB"/>
<stop offset="0.542969" stop-color="#ECEAEB"/>
<stop offset="0.546875" stop-color="#EDEAEB"/>
<stop offset="0.5625" stop-color="#EEEAEB"/>
<stop offset="0.625" stop-color="#EEEAEB"/>
<stop offset="0.75" stop-color="#EEEAEB"/>
<stop offset="1" stop-color="#EEEAEB"/>
</linearGradient>
</defs>
</svg>
