<svg width="47" height="40" viewBox="0 0 47 40" fill="none" xmlns="http://www.w3.org/2000/svg">
<path d="M15.0291 21.7794C14.4137 20.66 13.2298 19.807 11.7888 19.4867C12.9805 18.8035 13.7633 17.6455 13.7633 16.337C13.7633 14.2682 11.8083 12.5853 9.37418 12.5312H3.58299H3.34931H0V27.7081H2.90923H3.58299H9.51049C9.68185 27.7235 9.85711 27.7313 10.0363 27.7313C12.3107 27.7313 14.1956 26.7123 15.0252 25.2455V21.7794H15.0291ZM3.58299 14.5306H5.29269H7.85531C9.06262 14.5306 10.0363 15.5033 10.0363 16.6999C10.0363 17.8964 9.05873 18.8691 7.85531 18.8691H5.89246C5.89635 18.8729 5.89635 18.8729 5.90024 18.8768H3.58299V14.5306ZM9.13662 25.6701H6.09887H3.58299V20.9457H6.60126H9.13662C10.5542 20.9457 11.7031 22.0033 11.7031 23.3079C11.7031 24.6125 10.5542 25.6701 9.13662 25.6701Z" fill="#D0D3D6"/>
<path d="M47.0035 20C47.0035 24.4194 42.9048 28 37.8494 28C32.794 28 28.6953 24.4194 28.6953 20C28.6953 15.5806 32.794 12 37.8494 12C42.9048 12 47.0035 15.5806 47.0035 20ZM37.8927 13.8227C34.9673 13.8227 32.601 16.5834 32.601 19.9924C32.601 23.3975 34.9713 26.1621 37.8927 26.1621C40.8141 26.1621 43.1843 23.4013 43.1843 19.9924C43.1883 16.5834 40.8181 13.8227 37.8927 13.8227Z" fill="#D0D3D6"/>
<path d="M28.8856 20.052C28.8856 18.6453 29.2944 17.3235 30.0087 16.168C28.457 13.9883 25.6552 12.5312 22.4565 12.5312H18.7935H17.5354H15.0312V27.7313H17.5354H18.7935H22.4565C25.6909 27.7313 28.5165 26.2433 30.0603 24.0172C29.3142 22.8462 28.8856 21.4936 28.8856 20.052ZM21.9882 25.6907H18.7895V14.5332H21.9882C24.794 14.5332 27.064 17.0298 27.064 20.1139C27.068 23.1941 24.794 25.6907 21.9882 25.6907Z" fill="#D0D3D6"/>
</svg>
