<svg width="112" height="40" viewBox="0 0 112 40" fill="none" xmlns="http://www.w3.org/2000/svg">
<path d="M6.17962 11.1624C8.22791 10.7094 10.4626 11.216 12.1129 12.5339C11.0791 13.7844 10.081 15.0653 9.04312 16.3122C8.20916 17.2868 7.44493 18.3203 6.60979 19.2942C6.34372 19.6185 6.10226 19.9624 5.81978 20.2729C5.1757 21.0883 4.50935 21.8852 3.86702 22.7018C3.60095 23.0171 3.36067 23.3539 3.08111 23.6579C1.93653 22.6649 1.14945 21.2713 0.809538 19.7866C0.480757 18.2798 0.605002 16.6609 1.23033 15.2483C1.62592 14.3268 2.22722 13.5048 2.94984 12.8224C3.87113 12.0129 4.98406 11.4169 6.17962 11.1624Z" fill="#D0D3D6"/>
<path d="M16.5597 14.993C17.2718 14.4029 18.2464 14.2843 19.1302 14.4154C19.9196 14.5316 20.6674 14.9256 21.2142 15.5169C20.7682 16.0533 20.3334 16.6005 19.8897 17.1387C19.4425 16.8347 18.9661 16.523 18.4245 16.4413C17.7969 16.4354 17.3814 17.2186 17.6193 17.7777C17.7881 18.1961 18.172 18.4673 18.5494 18.6747C19.2398 19.0216 19.9647 19.3351 20.549 19.8573C21.1802 20.4939 21.5272 21.4094 21.465 22.313C21.4 24.0916 19.7877 25.68 18.0243 25.6115C16.8357 25.6216 15.8189 24.8492 15.0312 24.0147C15.5065 23.4109 15.9672 22.7946 16.4372 22.1866C16.739 22.5621 17.1094 22.8876 17.5326 23.1135C17.8725 23.2756 18.3109 23.3561 18.6379 23.1212C18.9344 22.8989 19.2023 22.5866 19.2462 22.2009C19.2837 21.8528 19.0856 21.5292 18.8383 21.3075C18.0729 20.594 16.933 20.5111 16.1864 19.7697C15.6284 19.1396 15.3653 18.2658 15.4134 17.4242C15.4368 16.4998 15.8295 15.5646 16.5597 14.993Z" fill="#D0D3D6"/>
<path d="M31.5292 15.075C32.1768 14.6381 32.9498 14.3967 33.7269 14.3853C34.7355 14.3514 35.726 14.6643 36.6215 15.1173C36.6109 16.0096 36.6133 16.9024 36.6209 17.7953C35.9018 17.3095 35.1159 16.8774 34.2515 16.7492C33.5382 16.6396 32.7605 16.8303 32.2401 17.3554C31.5351 18.0278 31.2965 19.0464 31.276 19.9965C31.2614 20.915 31.4905 21.8943 32.1481 22.5601C32.6568 23.0989 33.4116 23.3385 34.1342 23.2992C35.0338 23.2271 35.8649 22.8009 36.608 22.3032C36.6291 23.1919 36.6074 24.0812 36.6168 24.9699C35.5531 25.3573 34.4302 25.7013 33.288 25.5832C32.4159 25.495 31.586 25.0969 30.9414 24.4978C30.0552 23.683 29.4405 22.5678 29.2195 21.3728C28.9898 20.1431 29.0683 18.8432 29.5085 17.6689C29.914 16.63 30.6097 15.6966 31.5292 15.075Z" fill="#D0D3D6"/>
<path d="M37.8281 14.5009C38.5156 14.5057 39.2036 14.5021 39.8911 14.5033C39.8875 16.711 39.8899 18.9182 39.8899 21.1253C39.8958 21.7065 40.0522 22.3162 40.4672 22.7376C41.1329 23.3975 42.3642 23.2872 42.9175 22.5302C43.2316 22.1154 43.3213 21.5765 43.3377 21.0651C43.3395 18.8782 43.3354 16.6908 43.3395 14.5039C43.9665 14.5021 44.5936 14.5051 45.2207 14.5015C45.2869 14.4991 45.4206 14.4878 45.3995 14.598C45.3743 16.376 45.3959 18.1546 45.3889 19.9326C45.3801 20.596 45.4083 21.2606 45.3713 21.9234C45.2418 22.9385 44.8691 23.9941 44.0685 24.6611C43.3805 25.2351 42.4727 25.5146 41.5877 25.4824C40.6424 25.4914 39.6314 25.2237 38.9657 24.5037C38.2817 23.7271 37.8381 22.7102 37.8293 21.6588C37.8287 19.2728 37.8311 16.8869 37.8281 14.5009Z" fill="#D0D3D6"/>
<path d="M22.5486 14.5961C24.3883 14.5967 26.2285 14.6009 28.0688 14.5938C28.0658 15.3102 28.0682 16.0266 28.0676 16.7431C26.9353 16.7288 25.8024 16.7502 24.6702 16.7324C24.6719 17.4583 24.6684 18.1843 24.6719 18.9103C25.8054 18.9109 26.9388 18.9145 28.0723 18.9085C28.0629 19.6142 28.067 20.32 28.0699 21.0257C26.9365 21.0144 25.803 21.0275 24.6696 21.0191C24.6731 21.7648 24.6678 22.511 24.6731 23.2567C25.8042 23.243 26.9359 23.2585 28.0676 23.2489C28.0688 23.9648 28.0641 24.6806 28.0699 25.3965C26.2291 25.3869 24.3877 25.3971 22.5469 25.3911C22.5539 21.7928 22.5492 18.1945 22.5486 14.5961Z" fill="#D0D3D6"/>
<path d="M71.2581 14.6039C72.0317 14.6111 72.8059 14.6153 73.5795 14.6016C72.5591 16.5083 71.5312 18.4115 70.5197 20.323C70.471 20.7241 70.512 21.136 70.498 21.5413C70.5021 22.8192 70.4903 24.0972 70.5038 25.3751C69.8129 25.3787 69.1225 25.3757 68.4315 25.3751C68.4421 23.7598 68.4315 22.1439 68.4374 20.528C68.4585 20.3439 68.3483 20.1919 68.2662 20.0399C67.2992 18.2267 66.3246 16.4189 65.3594 14.6051C66.1289 14.6177 66.899 14.5986 67.6685 14.6129C68.2862 15.7001 68.8464 16.8248 69.4483 17.9227C70.0631 16.823 70.6357 15.6989 71.2581 14.6039Z" fill="#D0D3D6"/>
<path d="M87.6145 14.5665C88.1543 14.5719 88.6958 14.5474 89.2344 14.579C90.5647 18.1863 91.8629 21.809 93.1786 25.4235C92.4753 25.4217 91.7726 25.4288 91.0693 25.4217C90.8103 24.7082 90.5507 23.9947 90.2934 23.2801C89.0638 23.2813 87.8343 23.2747 86.6047 23.2831C86.3527 23.9971 86.0954 24.7088 85.8475 25.4241C85.1483 25.4187 84.4486 25.4342 83.75 25.4175C85.0323 21.7983 86.3369 18.1869 87.6145 14.5665ZM87.3056 21.2994C88.0634 21.303 88.8212 21.2982 89.579 21.303C89.1881 20.2498 88.8112 19.1918 88.4238 18.1374C88.0669 19.1972 87.6831 20.2468 87.3056 21.2994Z" fill="#D0D3D6"/>
<path d="M94.0883 14.5938C94.7834 14.6057 95.4784 14.5991 96.1735 14.5979C97.6574 16.9004 99.1284 19.2119 100.621 21.5091C100.616 19.2059 100.624 16.9028 100.616 14.5991C101.307 14.5985 101.998 14.6027 102.689 14.5967C102.687 18.1968 102.688 21.797 102.689 25.3971C102.001 25.3941 101.313 25.3923 100.626 25.3989C99.1437 23.0785 97.6756 20.7497 96.1881 18.4335C96.1993 20.7539 96.1846 23.0743 96.1958 25.3953C95.4919 25.3977 94.7886 25.3887 94.0859 25.4001C94.0924 21.7982 94.0865 18.1957 94.0883 14.5938Z" fill="#D0D3D6"/>
<path d="M46.7266 14.6094C47.5517 14.6231 48.3769 14.6112 49.2027 14.6153C49.7887 14.6231 50.3894 14.5712 50.9591 14.7483C51.7796 14.964 52.4782 15.5934 52.7888 16.3951C53.0496 17.1062 53.0859 17.8942 52.9248 18.6327C52.7946 19.1775 52.5989 19.7282 52.2268 20.1532C51.9577 20.4727 51.6026 20.6956 51.2433 20.8947C52.1072 22.408 53.0338 23.885 53.9158 25.3883C53.1129 25.3763 52.31 25.3859 51.5077 25.3823C50.6971 23.9876 49.852 22.6131 49.0362 21.2207C48.9589 21.2189 48.8827 21.2171 48.8065 21.2153C48.8012 22.6053 48.8041 23.9947 48.8047 25.3847C48.112 25.3835 47.4187 25.3769 46.7266 25.3883C46.7342 21.7953 46.7336 18.2023 46.7266 14.6094ZM48.8153 16.5495C48.82 17.4781 48.8182 18.4068 48.8159 19.3354C49.3205 19.3456 49.8643 19.3658 50.3121 19.0869C50.6567 18.8854 50.8343 18.4861 50.8741 18.0974C50.9462 17.6415 50.7903 17.1354 50.4129 16.8589C49.9569 16.5078 49.3568 16.5358 48.8153 16.5495Z" fill="#D0D3D6"/>
<path d="M54.7031 14.6094C55.3976 14.613 56.0927 14.6153 56.7877 14.61C56.7825 18.2 56.7795 21.7905 56.7889 25.3811C56.0944 25.3793 55.4 25.3769 54.7061 25.3829C54.7078 21.7917 54.7137 18.2005 54.7031 14.6094Z" fill="#D0D3D6"/>
<path d="M57.9297 14.6112C60.1216 14.613 62.314 14.6159 64.5059 14.6094C64.5076 15.3753 64.5065 16.1406 64.5071 16.9059C63.7587 16.9065 63.0103 16.9047 62.2613 16.9071C62.2683 19.7306 62.256 22.5547 62.2677 25.3787C61.5633 25.3853 60.8594 25.3728 60.1555 25.3871C60.1597 22.56 60.1614 19.733 60.1544 16.9065C59.4136 16.9065 58.6728 16.9041 57.932 16.9071C57.9303 16.1418 57.9338 15.3765 57.9297 14.6112Z" fill="#D0D3D6"/>
<path d="M76.9715 14.6172C78.0745 14.6339 79.1786 14.6106 80.2821 14.6249C80.9075 14.6774 81.5686 14.8341 82.0392 15.2848C82.7588 16.0471 82.9751 17.2106 82.6985 18.2137C82.5549 18.7245 82.191 19.1227 81.8323 19.4911C82.3404 19.6955 82.828 20.0036 83.1427 20.4692C83.7206 21.3471 83.7903 22.5041 83.4563 23.4881C83.2506 24.0663 82.8368 24.5622 82.3164 24.8733C81.6817 25.2471 80.9362 25.3901 80.2089 25.3794C79.1258 25.3752 78.0434 25.3871 76.9609 25.3734C76.9897 25.2316 77.0049 25.0879 77.0102 24.9437C76.9996 21.725 77.0108 18.5064 77.0031 15.2877C77.0055 15.0642 77.0207 14.8377 76.9715 14.6172ZM78.9887 16.4274C78.987 17.21 78.9911 17.9926 78.9875 18.7758C79.3943 18.777 79.8438 18.811 80.1884 18.5463C80.5523 18.2841 80.7574 17.818 80.7182 17.3679C80.6607 16.8798 80.2183 16.5239 79.7635 16.4435C79.5062 16.4101 79.2466 16.4333 78.9887 16.4274ZM78.9887 20.6098C78.9899 21.5945 78.9893 22.5792 78.9887 23.5638C79.6123 23.543 80.2833 23.6544 80.8559 23.3355C81.2849 23.1204 81.4836 22.6078 81.4572 22.1417C81.4754 21.6291 81.248 21.0885 80.7955 20.8316C80.2441 20.5157 79.5912 20.6372 78.9887 20.6098Z" fill="#D0D3D6"/>
<path d="M103.97 14.61C104.67 14.6159 105.371 14.6147 106.072 14.6094C106.063 16.1287 106.063 17.648 106.071 19.1673C107.12 17.685 108.161 16.1966 109.202 14.7089H109.208C110.023 14.6898 110.84 14.6958 111.656 14.7024C111.646 14.7691 111.637 14.8353 111.629 14.902C110.494 16.5292 109.332 18.1398 108.178 19.755C109.458 21.6266 110.727 23.5071 112.003 25.3817C111.16 25.3781 110.318 25.3835 109.475 25.3793C108.835 24.4119 108.18 23.4553 107.532 22.4939C107.503 22.4551 107.482 22.4134 107.468 22.3699C107.394 21.989 107.134 21.691 106.93 21.3763C106.695 21.0634 106.439 20.7355 106.413 20.326C106.255 20.2897 106.06 20.2033 105.926 20.3421C105.85 20.481 105.906 20.6521 105.914 20.8029C105.963 21.0884 105.935 21.3775 105.926 21.6642C105.92 22.479 105.947 23.2938 105.928 24.1086C105.914 24.493 105.971 24.8864 105.863 25.2613C105.929 25.2989 105.993 25.3364 106.062 25.3757L106.077 25.3859C105.374 25.3751 104.671 25.3799 103.969 25.3829C103.974 21.7917 103.972 18.2005 103.97 14.61Z" fill="#D0D3D6"/>
<path d="M76.875 14.6016L76.9665 14.6153C77.0155 14.8358 77.0004 15.0623 76.998 15.2858C77.0056 18.5045 76.9945 21.7231 77.005 24.9418C76.9998 25.086 76.9846 25.2296 76.956 25.3715L76.8756 25.393C76.8808 21.7958 76.8826 18.1987 76.875 14.6016Z" fill="#D0D3D6"/>
<path d="M105.923 20.3418C106.056 20.2029 106.251 20.2894 106.409 20.3257C106.435 20.7352 106.691 21.063 106.927 21.3759C107.131 21.6907 107.391 21.9887 107.464 22.3696C107.025 21.7765 106.631 21.15 106.214 20.5415C106.164 20.464 106.113 20.3877 106.063 20.312C106.042 21.9994 106.05 23.688 106.059 25.3754C105.989 25.3361 105.926 25.2985 105.859 25.261C105.967 24.8861 105.911 24.4927 105.924 24.1082C105.944 23.2934 105.917 22.4786 105.922 21.6638C105.931 21.3771 105.96 21.0881 105.911 20.8025C105.902 20.6517 105.846 20.4807 105.923 20.3418Z" fill="#D0D3D6"/>
<path d="M109.203 14.7089C109.251 14.57 109.401 14.6279 109.507 14.6135C110.286 14.6147 111.064 14.6219 111.842 14.6094C111.77 14.7083 111.7 14.8073 111.624 14.902C111.632 14.8353 111.641 14.7691 111.651 14.7024C110.835 14.6958 110.018 14.6898 109.203 14.7089Z" fill="#D0D3D6"/>
<path d="M6.61019 19.2945C7.44533 18.3206 8.20956 17.287 9.04352 16.3125C10.1729 17.3562 10.998 18.7467 11.3186 20.269C11.6562 21.8372 11.481 23.5258 10.7824 24.9707C10.1717 26.273 9.14491 27.3608 7.91242 28.0701C6.78543 28.7102 5.48554 29.0297 4.19796 28.9981C2.68885 28.929 1.19439 28.4075 0 27.4597C1.03616 26.2003 2.05591 24.9265 3.08151 23.6582C3.36106 23.3542 3.60135 23.0174 3.86742 22.7021C4.50975 21.8855 5.1761 21.0886 5.82018 20.2732C6.10266 19.9627 6.34412 19.6188 6.61019 19.2945Z" fill="#D0D3D6"/>
</svg>
