<svg width="126" height="42" viewBox="0 0 126 42" fill="none" xmlns="http://www.w3.org/2000/svg">
<path d="M18.0488 26.9818C16.2352 26.8558 14.7041 26.3411 13.5778 25.4794C12.4165 24.5898 11.7557 23.5336 11.5325 22.2094C11.4817 21.9075 11.4626 21.0831 11.4979 20.7279C11.6482 19.2259 12.3093 17.8994 13.5159 16.68C14.205 15.9834 14.8507 15.5145 15.7004 15.0926C16.9 14.497 18.167 14.1765 19.7957 14.0561C20.2454 14.023 21.4322 14.023 21.8697 14.0561C23.287 14.1635 24.4063 14.4586 25.4383 14.9972C27.0346 15.8302 27.9514 17.1033 28.0427 18.6139C28.0508 18.7466 28.053 18.855 28.0482 18.855L25.4847 18.9821C23.5102 19.0802 22.926 19.1025 22.9128 19.0809C22.9032 19.0652 22.8947 18.9885 22.8947 18.9098C22.894 18.5789 22.7725 18.0694 22.624 17.772C22.3684 17.2606 21.9758 16.993 21.3062 16.8726C21.0428 16.8253 20.3309 16.8313 20.0775 16.8827C19.2849 17.0437 18.7276 17.4175 18.3018 18.0746C18.0691 18.4335 17.925 18.7749 17.6624 19.5885C17.2949 20.7279 17.1486 21.5005 17.1689 22.1974C17.1869 22.8157 17.3066 23.1463 17.6341 23.481C17.7866 23.6368 17.8573 23.6894 18.0378 23.7788C18.4363 23.976 18.9545 24.0669 19.5339 24.0408C20.104 24.0147 20.5839 23.8888 20.9563 23.6674C21.2292 23.5049 21.6307 23.1016 21.8454 22.7736C21.9754 22.5757 22.2417 22.0826 22.2767 21.9764C22.2841 21.9544 22.6715 21.9816 23.9198 22.0908C26.3433 22.3022 27.1639 22.3767 27.1727 22.3849C27.1775 22.3894 27.1094 22.537 27.0221 22.7144C26.6619 23.4426 26.2251 24.0412 25.6269 24.6256C24.9816 25.2555 24.1481 25.8231 23.3323 26.1883C22.3419 26.6311 21.1784 26.898 19.8683 26.9837C19.4466 27.0109 18.4565 27.0101 18.0488 26.9818ZM28.1248 26.4749C28.1248 26.4671 28.1863 26.1947 28.2618 25.8697C28.4943 24.8682 29.6883 19.7369 30.0139 18.34C30.1834 17.6128 30.3218 17.0143 30.3218 17.0098C30.3218 17.0053 31.183 17.0016 32.2356 17.0016C34.0503 17.0016 34.1487 17.0031 34.1409 17.0303C34.1361 17.0459 33.956 17.8189 33.7406 18.7473C33.6083 19.32 33.4748 19.8923 33.3398 20.4644C33.3317 20.4919 33.4183 20.4931 35.0606 20.489L36.7902 20.4849L37.1611 18.8953L37.5674 17.1533L37.6024 17.0008H41.424L41.4155 17.0381L39.5312 25.1418L39.2178 26.488H37.3092C36.2595 26.488 35.4006 26.482 35.4006 26.4746C35.4006 26.4608 35.4462 26.2644 35.9877 23.9462C36.1482 23.2593 36.2794 22.6905 36.2794 22.6823C36.2794 22.673 35.591 22.667 34.5538 22.667C33.6046 22.667 32.8282 22.6715 32.8282 22.6764C32.8282 22.6812 32.7811 22.8869 32.7229 23.1337C32.5752 23.7617 32.1104 25.7541 32.0179 26.1544L31.941 26.488H30.0323C28.9838 26.4887 28.1248 26.4831 28.1248 26.4749ZM41.5319 26.4686C41.536 26.4574 42.0269 24.3502 42.6229 21.7867C42.9884 20.2122 43.355 18.6379 43.7227 17.0638L43.7385 17.002H45.6107C47.3863 17.002 47.4828 17.0035 47.4747 17.0307C47.4699 17.0463 47.2611 17.9415 47.0106 19.0194C46.6062 20.7588 45.5562 25.2722 45.351 26.1514L45.274 26.4809L43.3993 26.4854C41.9021 26.4884 41.526 26.4854 41.5319 26.4686ZM47.5789 26.4802C47.5789 26.4723 48.2161 23.7307 49.3933 18.6739C49.5228 18.1211 49.6506 17.5679 49.7767 17.0143C49.7767 17.0072 50.5796 17.0035 51.5612 17.0057L53.3457 17.0098L54.2764 18.4194C55.7202 20.606 56.1512 21.3111 56.5836 22.1986L56.76 22.5604L56.75 22.2887C56.732 21.8031 56.7788 21.5478 57.2881 19.3735C57.4189 18.8163 57.5968 18.0548 57.6837 17.681L57.8425 17.0016H59.4166C60.6689 17.0016 60.9894 17.0057 60.9838 17.0221C60.6188 18.5824 60.2551 20.143 59.8929 21.704C59.5276 23.2787 59.1611 24.8531 58.7935 26.4272L58.7772 26.4891L57.3169 26.488L55.8565 26.4872L55.6436 26.1794C55.3709 25.7851 55.0973 25.3915 54.8226 24.9987C53.3715 22.9138 53.1659 22.6167 52.9729 22.3204C52.5667 21.698 52.2216 21.0603 52.0743 20.6593L52.0109 20.4878V20.7748C52.0109 21.2269 52.0021 21.2754 51.5895 23.0464C50.9804 25.6632 50.8006 26.4321 50.7921 26.4604C50.7844 26.4872 50.6931 26.4891 49.1815 26.4891C48.3001 26.4891 47.5789 26.4854 47.5789 26.4802ZM60.1334 26.4824C60.1334 26.4757 60.6376 25.687 60.9555 25.1962L61.4273 24.4631L62 23.5734C62.1433 23.3517 62.453 22.8698 62.6891 22.503C62.926 22.1363 63.2365 21.6537 63.3797 21.4304L64.9351 19.0138L66.2294 17.0027L68.299 17.0023L70.3685 17.002L70.3774 17.0392L70.5656 17.8998C70.7376 18.6907 72.226 25.5406 72.3582 26.1522C72.3943 26.3154 72.423 26.4578 72.423 26.4697C72.423 26.4854 72.005 26.4895 70.482 26.4895H68.5406L68.3723 25.5965C68.3114 25.2725 68.2499 24.9486 68.1877 24.6248L68.1719 24.5462H64.6143L63.9978 25.5178L63.3805 26.4895H61.7569C60.8641 26.4887 60.1334 26.4857 60.1334 26.4824ZM67.5126 22.5906C67.8721 22.5817 67.9306 22.5765 67.9306 22.5549C67.9306 22.5239 67.4099 19.8453 67.4017 19.8379C67.3988 19.8349 67.0047 20.4498 66.5255 21.2046L65.6545 22.5768L66.194 22.5854C66.4913 22.5906 66.8158 22.5955 66.9145 22.5977C67.1139 22.5992 67.3133 22.5968 67.5126 22.5906ZM73.623 26.4809C73.623 26.4727 74.4388 22.96 75.332 19.1267C75.5927 18.0079 75.8101 17.072 75.8152 17.0471L75.8244 17.0016H78.7967C80.5031 17.0016 81.9223 17.0087 82.1274 17.018C83.5591 17.0832 84.3362 17.2692 84.9682 17.6985C85.4662 18.0366 85.7841 18.4518 85.9071 18.9255C85.9439 19.0649 85.9487 19.1197 85.9494 19.3489C85.9494 19.5818 85.9443 19.6314 85.9067 19.7771C85.8445 20.0025 85.7429 20.2148 85.6069 20.404C85.1903 20.9623 84.3778 21.4013 83.4139 21.5892C83.2887 21.613 83.1753 21.6369 83.1613 21.6414C83.1484 21.6458 83.2475 21.6812 83.3823 21.7207C84.5182 22.0517 85.1553 22.6134 85.2935 23.4061C85.32 23.5559 85.3159 23.9193 85.2857 24.0926C85.2338 24.3912 85.1075 24.6938 84.9152 24.98C84.7922 25.1634 84.4331 25.5331 84.2294 25.6863C83.5801 26.1742 82.6291 26.4231 81.2162 26.4731C80.7831 26.4887 73.623 26.4962 73.623 26.4809ZM80.5142 24.358C80.9993 24.2805 81.3094 24.0919 81.4608 23.7818C81.6733 23.3472 81.3941 22.8735 80.8251 22.7024C80.5381 22.6164 80.505 22.6141 79.3901 22.6067C78.3923 22.6 78.3455 22.6007 78.3371 22.6298C78.3326 22.6462 78.2737 22.8966 78.2063 23.1866L78.0104 24.0267C77.9699 24.1988 77.9367 24.3531 77.9367 24.3699C77.9367 24.3982 77.985 24.3994 79.1374 24.393C80.1683 24.3871 80.3621 24.3822 80.5142 24.358ZM80.7691 20.6075C81.6309 20.5382 82.0755 20.294 82.1348 19.8576C82.1886 19.4655 81.9554 19.1886 81.4733 19.0708C81.1934 19.0023 81.007 18.9929 80.0615 18.9982L79.1838 19.003L79 19.7853C78.9352 20.055 78.8738 20.3254 78.8159 20.5967C78.8151 20.6239 78.8671 20.6254 79.6829 20.6254C80.1599 20.6254 80.649 20.6175 80.7691 20.6075ZM85.4795 26.4824C85.4795 26.4731 85.7332 26.0769 88.724 21.4326L89.5965 20.0775C89.8613 19.6664 90.2654 19.038 90.6388 18.4592C90.8145 18.1875 91.0963 17.7485 91.2661 17.4839L91.5755 17.0023L93.6447 17.002L95.7142 17.0016L95.7238 17.0404C95.733 17.0799 95.9002 17.8439 96.2317 19.3735L96.6862 21.4654C97.4906 25.1627 97.7683 26.447 97.7683 26.4671C97.7683 26.4854 97.4431 26.4891 95.8273 26.4891H93.8863L93.7161 25.5875C93.6554 25.2635 93.5939 24.9396 93.5316 24.6159L93.5172 24.5458H89.9586L89.7162 24.929L89.0997 25.9006L88.7262 26.4891H87.1026C86.2098 26.4887 85.4795 26.4857 85.4795 26.4824ZM93.122 22.5877L93.2848 22.5772L93.0226 21.2269C92.9345 20.7684 92.8447 20.3102 92.753 19.8524C92.7486 19.839 92.3651 20.4267 91.8723 21.2031L90.9998 22.5772L91.6698 22.5858C92.6797 22.5988 92.943 22.5988 93.122 22.5877ZM99.0284 26.2215C99.6066 23.7263 101.14 17.138 101.16 17.0631L101.176 17.0012L102.954 17.0016L104.731 17.002L105.711 18.4883C106.884 20.268 107.184 20.7458 107.609 21.4979C107.757 21.7625 108.075 22.3868 108.125 22.5153C108.136 22.5452 108.148 22.5672 108.152 22.5634C108.155 22.5604 108.15 22.4639 108.141 22.3495C108.116 22.0316 108.157 21.6835 108.303 20.9966C108.357 20.748 109.201 17.119 109.226 17.0303C109.233 17.0031 109.323 17.0016 110.804 17.0016C111.667 17.0016 112.374 17.0053 112.374 17.0102C112.374 17.0146 111.912 19.003 111.347 21.4285L110.245 26.1637L110.17 26.4891H107.252L106.559 25.4966C104.566 22.6402 104.388 22.3797 104.102 21.9101C103.83 21.4632 103.579 20.9698 103.462 20.65C103.428 20.5594 103.4 20.4834 103.397 20.4808C103.395 20.4782 103.397 20.5859 103.401 20.7197C103.409 20.9783 103.385 21.2213 103.321 21.5474C103.303 21.6429 103.053 22.7248 102.767 23.9525L102.212 26.3363L102.178 26.4887H98.9654L99.0284 26.2215ZM112.495 26.4816C112.495 26.4742 113.118 23.7919 114.272 18.8342L114.699 17.0016H116.534C117.995 17.0016 118.368 17.0057 118.362 17.0221C118.024 18.458 117.69 19.895 117.361 21.3331C117.361 21.3458 117.406 21.2899 117.46 21.209C117.704 20.8475 117.946 20.5993 118.574 20.0659C118.825 19.8531 119.33 19.4193 119.697 19.1014C120.226 18.648 120.762 18.2017 121.303 17.7627L122.243 17.0016L124.12 17.0057L125.997 17.0098L124.165 18.4905C122.3 19.9981 121.612 20.5553 121.588 20.5762C121.576 20.5874 121.668 20.8069 122.448 22.6264C123.451 24.9636 124.065 26.3989 124.085 26.4522L124.099 26.4895H120.215L120.116 26.2301C119.989 25.8995 119.316 24.1351 118.979 23.2492C118.836 22.875 118.717 22.5698 118.712 22.5698C118.708 22.5701 118.517 22.7188 118.289 22.9015C118.061 23.0833 117.618 23.4367 117.304 23.6856C116.99 23.9353 116.725 24.1482 116.713 24.1593C116.701 24.1705 116.666 24.2864 116.636 24.4161C116.607 24.5466 116.493 25.0385 116.385 25.5096C116.315 25.816 116.244 26.1222 116.171 26.428L116.155 26.4898H114.325C113.318 26.4891 112.495 26.4857 112.495 26.4816ZM-15.7656 23.6886L-14.6898 20.4517L-13.6205 17.2327H-10.7149C-8.99006 17.2327 -7.69396 17.2405 -7.52527 17.2517C-6.82952 17.2983 -6.30872 17.4052 -6.05974 17.5524C-5.75772 17.7306 -5.62549 18.0418 -5.67816 18.451C-5.77318 19.1879 -6.14482 19.7283 -6.77501 20.0473C-6.96211 20.142 -7.31238 20.2527 -7.57278 20.2996C-7.7028 20.3231 -7.81624 20.3481 -7.82471 20.3552C-7.83281 20.3622 -7.74442 20.3827 -7.62803 20.401C-7.16395 20.4729 -6.87924 20.5926 -6.67188 20.8028C-6.47851 20.9985 -6.44684 21.0875 -6.44757 21.4271C-6.44794 21.6734 -6.45126 21.6954 -6.51829 21.8978C-6.65162 22.301 -6.84057 22.6219 -7.09912 22.8836C-7.6144 23.405 -8.39228 23.6346 -9.8254 23.6879C-10.4681 23.7117 -15.7741 23.7125 -15.7656 23.6886ZM-10.2416 22.6529C-9.23352 22.6167 -8.94476 22.5187 -8.68804 22.1218C-8.53114 21.8788 -8.40591 21.4681 -8.43169 21.2787C-8.46005 21.0674 -8.58123 20.9724 -8.88804 20.9202C-9.22321 20.8632 -9.58416 20.8524 -11.1911 20.8524H-12.8128L-13.1078 21.7476C-13.2703 22.2403 -13.4029 22.6495 -13.4029 22.6573C-13.4029 22.6782 -10.8423 22.6745 -10.2416 22.6529ZM-9.09614 19.915C-8.64127 19.8662 -8.37902 19.7831 -8.21844 19.6359C-8.06301 19.4939 -7.88106 19.1547 -7.83981 18.9288C-7.79156 18.6676 -7.93263 18.4611 -8.22691 18.362C-8.51788 18.2639 -8.54735 18.2624 -10.3005 18.2531C-11.8736 18.2449 -11.9406 18.2457 -11.9543 18.2792C-11.9922 18.3728 -12.4939 19.9068 -12.4939 19.9295C-12.4939 19.9515 -12.2364 19.9541 -10.899 19.9463C-9.88139 19.9407 -9.2291 19.9292 -9.09614 19.915Z" fill="#D0D3D6"/>
<path d="M-18.0906 26.7069C-18.3878 26.5873 -18.7185 26.2727 -18.8817 25.9544C-19.102 25.5266 -19.0283 24.9291 -18.5451 23.2072C-18.2887 22.2941 -17.7256 20.289 -17.2932 18.7516C-16.8608 17.2142 -16.4011 15.7577 -16.2714 15.5139C-16.0055 15.0156 -15.2965 14.4152 -14.6777 14.1651C-14.2958 14.0108 -13.6174 14 -4.14094 14C5.92147 14 5.99035 14.0011 6.35093 14.1931C7.22605 14.6574 7.32513 15.2992 6.80728 17.159L6.45443 18.4262H5.4515C4.6169 18.4262 4.45705 18.4035 4.4994 18.2924C4.80363 17.4911 4.77638 16.9928 4.4099 16.6447L4.17713 16.4233L-4.53946 16.395C-10.7625 16.3749 -13.3577 16.3968 -13.6107 16.471C-14.0848 16.6104 -14.733 17.2306 -14.9065 17.711C-14.9838 17.9246 -15.4254 19.3155 -15.888 20.8014C-16.7075 23.435 -16.7256 23.5128 -16.604 23.8762C-16.3558 24.6194 -16.9495 24.5751 -7.22559 24.5743L1.38381 24.5736L1.84494 24.3559C2.34622 24.12 2.86666 23.5893 2.95763 23.2225C3.01435 22.9933 3.02393 22.9911 4.06405 22.9911C4.73771 22.9911 5.11302 23.0265 5.11302 23.0895C5.11302 23.3645 4.611 24.9515 4.41727 25.2884C4.10641 25.8288 3.43497 26.3987 2.84419 26.6219C2.35175 26.8083 2.18085 26.8113 -7.75854 26.8053C-14.2413 26.8019 -17.9429 26.7665 -18.0906 26.7069Z" fill="#D0D3D6"/>
<path d="M-3.07633 23.7389C-4.62695 23.7012 -5.6133 23.5145 -5.97314 23.1899C-6.28106 22.9118 -6.29984 22.1933 -6.02729 21.0778C-5.94 20.7196 -5.74847 20.0685 -5.63061 19.729C-5.27518 18.7048 -4.76322 18.0563 -4.03396 17.7052C-3.50579 17.451 -2.6362 17.2904 -1.32536 17.205C-0.805662 17.1715 1.18767 17.1711 1.57072 17.2047C2.7939 17.3124 3.28302 17.4916 3.48191 17.9046C3.62482 18.2009 3.61782 18.5423 3.45871 19.1047L3.38541 19.3633L2.37659 19.3682C1.42155 19.373 1.36851 19.3715 1.37735 19.3395C1.38251 19.3209 1.40976 19.2281 1.43812 19.1334C1.50773 18.899 1.51252 18.691 1.45064 18.5635C1.39798 18.4547 1.34568 18.41 1.21124 18.3593C0.945684 18.2587 0.449561 18.2177 -0.483017 18.2184C-1.7073 18.2195 -2.41373 18.2985 -2.75332 18.4718C-3.11059 18.6545 -3.43544 19.2407 -3.79271 20.3499C-4.059 21.1754 -4.17465 21.6894 -4.17576 22.0517C-4.17613 22.1761 -4.16729 22.2648 -4.14924 22.3081C-4.07189 22.4955 -3.72936 22.6088 -3.05755 22.6703C-2.69439 22.7031 -1.30878 22.7035 -0.937519 22.6703C-0.159266 22.601 0.0996599 22.5183 0.360796 22.2563C0.547164 22.0692 0.658764 21.8552 0.757841 21.4941L0.788043 21.3841H2.80937L2.74233 21.5802C2.54123 22.1694 2.3103 22.5772 1.99612 22.8995C1.66501 23.2387 1.29964 23.418 0.700016 23.5357C-0.146007 23.7031 -1.51615 23.7765 -3.07633 23.7389Z" fill="#D0D3D6"/>
</svg>
