<svg width="94" height="39" viewBox="0 0 94 39" fill="none" xmlns="http://www.w3.org/2000/svg">
<path d="M31.3521 17.0467C31.0573 15.8878 30.3781 15.5315 28.9986 15.5315C27.5841 15.5315 26.9228 15.9061 26.629 17.0467C26.4616 17.6835 26.4446 18.376 26.4267 19.0498L31.5719 19.0306C31.5535 18.3578 31.5163 17.7027 31.3521 17.0467ZM33.318 20.0795C33.318 20.2101 33.1892 20.36 33.0614 20.36H26.4446C26.4446 21.3517 26.6469 21.914 27.0695 22.3804C27.5841 22.9802 28.4302 23.1853 29.6419 23.1853C30.7824 23.1853 31.5163 22.9428 32.3081 22.7175L32.4171 22.6993C32.5096 22.6993 32.5657 22.7559 32.6204 22.8866L32.8227 23.6535L32.8411 23.7289C32.8411 23.8413 32.7671 23.9153 32.6383 23.9537C31.9214 24.2524 30.7088 24.5146 29.4401 24.5146C25.839 24.5146 24.6797 22.8678 24.6797 19.3682C24.6797 16.1309 25.3966 14.2031 29.0184 14.2031C30.9286 14.2031 32.0502 14.7828 32.6751 15.7933C33.1892 16.6543 33.318 17.8151 33.318 19.1622V20.0795Z" fill="#D0D3D6"/>
<path d="M40.5722 19.1992L37.447 19.7236C36.6018 19.8543 35.7557 19.9292 35.7557 21.3325C35.7557 23.1104 37.1716 23.2232 38.2927 23.2232C39.0846 23.2232 39.8921 23.1291 40.5722 22.9048V19.1992ZM40.6821 24.2524C40.1307 24.3835 39.2487 24.5146 38.2564 24.5146C36.5839 24.5146 33.9922 24.4205 33.9922 21.3887C33.9922 18.9183 35.3883 18.7689 37.1164 18.4697L40.5722 17.8891V17.0655C40.5722 16.4862 40.5359 16.0372 39.9289 15.7928C39.5978 15.6626 39.0846 15.606 38.3106 15.606C36.9325 15.606 35.6821 15.9618 34.9855 16.1304L34.8558 16.1491C34.7818 16.1491 34.6902 16.1107 34.6718 15.9993L34.4884 15.082L34.4704 15.0258C34.4704 14.8956 34.5992 14.8203 34.6718 14.8011C35.2416 14.5955 36.8221 14.2031 38.5502 14.2031C39.8741 14.2031 40.7193 14.389 41.2712 14.6896C42.2263 15.2309 42.2631 16.1491 42.2631 17.1034V22.3256C42.2631 23.6531 41.9504 23.9532 40.6821 24.2524Z" fill="#D0D3D6"/>
<path d="M46.6957 24.5146C45.0958 24.5146 43.662 23.9897 43.4054 23.8966C43.3502 23.8605 43.2578 23.8221 43.2578 23.691V23.6165L43.4422 22.7929C43.4601 22.6993 43.5342 22.6239 43.6441 22.6239L43.736 22.6431C43.92 22.6801 45.2067 23.1478 46.6584 23.1478C48.0913 23.1478 48.9558 22.6993 48.9558 21.6139C48.9558 20.1736 47.8899 20.2106 46.5476 19.9854C45.5925 19.8355 43.3502 19.6492 43.3502 17.1596C43.3502 14.6704 45.5 14.2031 47.1362 14.2031C48.6983 14.2031 49.8921 14.5393 50.1137 14.596C50.2599 14.633 50.3151 14.7271 50.3151 14.8203V14.8582L50.1689 15.775C50.151 15.8874 50.0585 15.9061 49.985 15.9061H49.9477C49.6911 15.8874 48.387 15.569 47.3381 15.569C46.107 15.569 45.0411 15.9061 45.0411 17.028C45.0411 18.2449 46.2358 18.3573 47.3381 18.5067C48.9558 18.7314 50.6655 18.9384 50.6655 21.4449C50.6655 23.8778 48.8455 24.5146 46.6957 24.5146Z" fill="#D0D3D6"/>
<path d="M77.4054 17.0467C77.1116 15.8878 76.4324 15.5315 75.0538 15.5315C73.6383 15.5315 72.9775 15.9061 72.6823 17.0467C72.5163 17.6835 72.4984 18.376 72.4809 19.0498L77.6266 19.0306C77.6073 18.3578 77.5705 17.7027 77.4054 17.0467ZM79.3722 20.0795C79.3722 20.2101 79.2444 20.36 79.1156 20.36H72.4984C72.4984 21.3517 72.7016 21.914 73.1233 22.3804C73.6383 22.9802 74.4835 23.1853 75.6957 23.1853C76.8371 23.1853 77.5705 22.9428 78.3615 22.7175L78.4714 22.6993C78.5638 22.6993 78.6199 22.7559 78.6746 22.8866L78.876 23.6535L78.8944 23.7289C78.8944 23.8413 78.8208 23.9153 78.6925 23.9537C77.9756 24.2524 76.763 24.5146 75.4943 24.5146C71.8918 24.5146 70.7344 22.8678 70.7344 19.3682C70.7344 16.1309 71.4508 14.2031 75.0712 14.2031C76.9824 14.2031 78.1049 14.7828 78.7298 15.7933C79.2444 16.6543 79.3722 17.8151 79.3722 19.1622L79.3722 20.0795Z" fill="#D0D3D6"/>
<path d="M83.6552 24.5146C82.0563 24.5146 80.6234 23.9897 80.3659 23.8966C80.3112 23.8605 80.2188 23.8221 80.2188 23.691V23.6165L80.4022 22.7929C80.4202 22.6993 80.4942 22.6239 80.6046 22.6239L80.6965 22.6431C80.8805 22.6801 82.1667 23.1478 83.6198 23.1478C85.0522 23.1478 85.9168 22.6993 85.9168 21.6139C85.9168 20.1736 84.8504 20.2106 83.509 19.9854C82.5534 19.8355 80.3112 19.6492 80.3112 17.1596C80.3112 14.6704 82.4605 14.2031 84.0971 14.2031C85.6588 14.2031 86.8544 14.5393 87.0737 14.596C87.2218 14.633 87.2765 14.7271 87.2765 14.8203V14.8582L87.1303 15.775C87.111 15.8874 87.0186 15.9061 86.9464 15.9061H86.9087C86.6516 15.8874 85.3475 15.569 84.299 15.569C83.068 15.569 82.0007 15.9061 82.0007 17.028C82.0007 18.2449 83.1963 18.3573 84.299 18.5067C85.9168 18.7314 87.6251 18.9384 87.6251 21.4449C87.6251 23.8778 85.8064 24.5146 83.6552 24.5146Z" fill="#D0D3D6"/>
<path d="M94.001 23.9152C94.001 24.028 93.927 24.1025 93.8364 24.1399C93.4685 24.271 92.6596 24.4958 91.5744 24.4958C89.7009 24.4958 88.7812 23.6909 88.7812 21.8184V11.6947C88.7812 11.5079 88.8737 11.4517 89.0388 11.4133L90.2335 11.1328H90.2882C90.4353 11.1328 90.491 11.2461 90.491 11.395V14.4456H93.4685C93.6152 14.4456 93.7251 14.558 93.7251 14.727V15.531C93.7251 15.6813 93.6152 15.7927 93.4501 15.7927H90.491V21.9139C90.491 22.8865 90.9871 23.1473 91.9423 23.1473C92.5129 23.1473 93.1926 22.9979 93.56 22.9235L93.6152 22.9047C93.7072 22.9047 93.7987 22.9797 93.8175 23.092L94.001 23.8782L94.001 23.9152Z" fill="#D0D3D6"/>
<path d="M70.3833 14.4453H69.1326C68.9316 14.4453 68.8585 14.5577 68.8212 14.708L67.094 23.0543H66.6158L64.9061 15.1378C64.8702 14.951 64.7231 14.8386 64.5396 14.8386H62.5176C62.3332 14.8386 62.187 14.951 62.1497 15.1378L60.4221 23.0543H59.9254C59.9254 23.0543 58.5689 16.4821 58.4185 15.7943C58.3058 15.2797 58.1049 14.4472 56.2384 14.4472H55.0391C56.1059 14.5666 56.5092 15.2287 56.85 16.609L58.6208 23.9711C58.6572 24.1589 58.8048 24.2712 58.9896 24.2712H61.3409C61.5243 24.2712 61.6724 24.1589 61.7267 23.9711L63.4907 16.1488H63.5279L65.2188 23.9711C65.2556 24.1589 65.4206 24.2712 65.605 24.2712H67.9756C68.1595 24.2712 68.3067 24.1589 68.3434 23.9711L70.6225 14.7637V14.708C70.6225 14.5577 70.531 14.4453 70.3833 14.4453Z" fill="#D0D3D6"/>
<path d="M56.8565 23.092C56.8377 22.9792 56.7457 22.9043 56.6547 22.9043L56.599 22.9235C56.2321 22.9979 55.5515 23.1477 54.9817 23.1477C54.0266 23.1477 53.53 22.8865 53.53 21.913V15.7932H53.5323V15.796H55.564C55.3901 15.796 55.8941 15.8007 56.1595 15.906C56.4239 16.01 56.6864 16.215 56.8506 16.6149C56.5099 15.2308 56.107 14.5673 55.0388 14.447L53.53 14.4456V11.3946C53.53 11.2461 53.4749 11.1328 53.3282 11.1328H53.273L52.0783 11.4138C51.9123 11.4512 51.8203 11.5079 51.8203 11.6947V21.8189C51.8203 23.6904 52.7396 24.4963 54.6148 24.4963C55.6978 24.4963 56.508 24.2715 56.8754 24.1399C56.967 24.1025 57.0396 24.0276 57.0396 23.9152V23.8777L56.8565 23.092Z" fill="#D0D3D6"/>
<path d="M11.6147 17.5055L15.4642 20.4009C18.3916 22.6034 16.9314 23.7635 16.9243 23.7692L17.6877 23.1874C18.6893 22.4241 19.3754 21.6714 19.7227 21.0338C20.0039 20.5163 20.1174 20.0173 20.1174 19.5003C20.1174 18.1658 19.2487 17.0014 17.6877 15.8128L10.059 10C10.059 10 7.98413 14.7756 11.6147 17.5055Z" fill="#D0D3D6"/>
<path d="M2.42976 15.8158C1.42737 16.5794 0.742011 17.3318 0.394757 17.9694C0.112534 18.4873 0 18.986 0 19.5033C0 20.8374 0.868768 22.0017 2.42976 23.1904L10.0576 29.003C10.0576 29.003 12.1333 24.2277 8.50301 21.4975L4.6535 18.6021C1.71874 16.395 3.19311 15.2344 3.19311 15.2344L2.42976 15.8158Z" fill="#D0D3D6"/>
<path d="M3.13835 15.2761C3.00931 15.4114 2.82031 15.691 2.82031 16.0911C2.82031 16.661 3.18865 17.5026 4.65336 18.6043C5.10223 18.9421 5.49876 19.2406 5.84906 19.5039C7.17609 18.5062 5.28182 19.9314 8.50668 17.5055C9.23472 16.9579 9.73337 16.3273 10.0649 15.6698C9.62465 14.7989 9.47757 13.8807 9.47757 13.041C9.47757 11.4314 10.023 10.1071 10.0613 10L3.13835 15.2761Z" fill="#D0D3D6"/>
<path d="M11.6134 21.4984C10.8846 22.0462 10.3862 22.6761 10.0547 23.3341C10.4944 24.2053 10.642 25.1238 10.642 25.9626C10.642 27.5474 10.1164 28.8559 10.057 29.0018L10.0578 29.0039L16.9886 23.7231C17.0986 23.6005 17.2995 23.3121 17.2995 22.9125C17.2995 22.3432 16.9304 21.5015 15.4667 20.3994C15.0176 20.0613 14.6208 19.7636 14.27 19.5C12.9432 20.4979 14.8382 19.0727 11.6134 21.4984Z" fill="#D0D3D6"/>
</svg>
