<svg width="40" height="40" viewBox="0 0 40 40" fill="none" xmlns="http://www.w3.org/2000/svg">
<path fill-rule="evenodd" clip-rule="evenodd" d="M6.58072 3.97256C4.45704 4.60124 3 6.55211 3 8.76689V18.3159C3 23.9025 5.594 29.1725 10.0211 32.5799L19.3901 39.7911C19.7496 40.0678 20.2504 40.0678 20.6099 39.7911L29.9789 32.5799C34.406 29.1724 37 23.9025 37 18.3159V8.76689C37 6.55211 35.543 4.60124 33.4193 3.97256L20 0L6.58072 3.97256ZM29.4142 14.5081C30.1953 13.722 30.1953 12.4474 29.4142 11.6613C28.6332 10.8751 27.3668 10.8751 26.5858 11.6613L19 19.2965L15.4142 15.6873C14.6332 14.9012 13.3668 14.9012 12.5858 15.6873C11.8047 16.4734 11.8047 17.748 12.5858 18.5342L17.5858 23.5667C18.3668 24.3529 19.6332 24.3529 20.4142 23.5667L29.4142 14.5081Z" fill="#09152F"/>
</svg>
