<svg width="40" height="40" viewBox="0 0 40 40" fill="none" xmlns="http://www.w3.org/2000/svg">
<g clip-path="url(#clip0_547_47727)">
<path d="M37.4742 18.2922L19.9992 28.7789L2.52419 18.2922C2.14515 18.0648 1.69129 17.9972 1.26246 18.1045C0.833623 18.2117 0.464942 18.4848 0.237519 18.8639C0.0100956 19.2429 -0.0574404 19.6968 0.0497679 20.1256C0.156976 20.5544 0.430147 20.9231 0.809186 21.1505L19.1425 32.1505C19.4017 32.3063 19.6985 32.3886 20.0009 32.3886C20.3033 32.3886 20.6 32.3063 20.8592 32.1505L39.1925 21.1505C39.5716 20.9231 39.8447 20.5544 39.9519 20.1256C40.0592 19.6968 39.9916 19.2429 39.7642 18.8639C39.5368 18.4848 39.1681 18.2117 38.7393 18.1045C38.3104 17.9972 37.8566 18.0648 37.4775 18.2922H37.4742Z" fill="#09152F"/>
<path d="M37.4742 25.9094L19.9992 36.3944L2.52418 25.9094C2.3365 25.7968 2.12848 25.7222 1.91199 25.69C1.6955 25.6578 1.47479 25.6686 1.26245 25.7216C1.05011 25.7747 0.850313 25.8691 0.674454 25.9994C0.498595 26.1297 0.350122 26.2934 0.237514 26.4811C0.124905 26.6687 0.0503659 26.8768 0.0181516 27.0933C-0.0140628 27.3097 -0.00332121 27.5305 0.049763 27.7428C0.156971 28.1716 0.430142 28.5403 0.80918 28.7677L19.1425 39.7677C19.4017 39.9235 19.6984 40.0057 20.0008 40.0057C20.3033 40.0057 20.6 39.9235 20.8592 39.7677L39.1925 28.7677C39.5716 28.5403 39.8447 28.1716 39.9519 27.7428C40.0591 27.314 39.9916 26.8601 39.7642 26.4811C39.5368 26.102 39.1681 25.8289 38.7392 25.7216C38.3104 25.6144 37.8566 25.682 37.4775 25.9094H37.4742Z" fill="#09152F"/>
<path d="M0.807806 13.9242L17.4478 23.9092C18.2182 24.3727 19.1004 24.6176 19.9995 24.6176C20.8986 24.6176 21.7807 24.3727 22.5511 23.9092L39.1911 13.9242C39.4376 13.776 39.6415 13.5666 39.783 13.3163C39.9246 13.066 39.9989 12.7834 39.9989 12.4959C39.9989 12.2083 39.9246 11.9257 39.783 11.6754C39.6415 11.4251 39.4376 11.2157 39.1911 11.0675L22.5511 1.08253C21.7805 0.619576 20.8985 0.375 19.9995 0.375C19.1005 0.375 18.2184 0.619576 17.4478 1.08253L0.807806 11.0675C0.561385 11.2157 0.357491 11.4251 0.215941 11.6754C0.0743904 11.9257 0 12.2083 0 12.4959C0 12.7834 0.0743904 13.066 0.215941 13.3163C0.357491 13.5666 0.561385 13.776 0.807806 13.9242Z" fill="#09152F"/>
</g>
<defs>
<clipPath id="clip0_547_47727">
<rect width="40" height="40" fill="white"/>
</clipPath>
</defs>
</svg>
