<svg width="138" height="36" viewBox="0 0 138 36" fill="none" xmlns="http://www.w3.org/2000/svg">
<g clip-path="url(#clip0_3009_14905)">
<path d="M51.6044 35.5537L50.9279 32.5055H47.2231L46.5466 35.5537H42.8203L46.8258 18.8203H51.5077L55.4917 35.5537H51.6017H51.6044ZM49.1345 22.4595H49.0406L47.6419 29.5745H50.4607L49.1318 22.4595H49.1345Z" fill="white"/>
<path d="M56.9375 35.5537V18.8203H60.7121V32.0561H65.1148V35.5537H56.9375Z" fill="white"/>
<path d="M66.7891 35.5537V18.8203H70.5636V32.0561H74.9664V35.5537H66.7917H66.7891Z" fill="white"/>
<path d="M87.0086 30.7785C87.0086 31.6775 86.8636 32.4293 86.5764 33.0367C86.2891 33.6442 85.9133 34.1318 85.4462 34.5022C84.979 34.8727 84.4555 35.1396 83.873 35.3058C83.2904 35.4719 82.7052 35.5537 82.1146 35.5537H76.6406V18.8203H81.5803C82.0931 18.8203 82.6354 18.8748 83.2099 18.9865C83.7844 19.0982 84.3079 19.3052 84.7831 19.613C85.2556 19.9208 85.6529 20.3566 85.9697 20.9259C86.2891 21.4925 86.4475 22.2253 86.4475 23.1242C86.4475 24.1157 86.2489 24.9084 85.8542 25.4995C85.4596 26.0906 84.9737 26.521 84.3992 26.7879V26.8342C84.7106 26.9132 85.0193 27.0549 85.3307 27.2592C85.6421 27.4635 85.9213 27.7277 86.1683 28.0519C86.4153 28.376 86.6193 28.7655 86.7751 29.2204C86.9308 29.6781 87.0086 30.1983 87.0086 30.7813V30.7785ZM83.1642 23.7235C83.1642 23.0724 82.9871 22.6121 82.6273 22.3424C82.2703 22.0727 81.8515 21.9393 81.3682 21.9393H80.1092V25.5785H81.3897C81.8407 25.5785 82.2488 25.4368 82.6112 25.1508C82.9763 24.8648 83.1589 24.3881 83.1589 23.7235H83.1642ZM83.4676 30.438C83.4676 30.0567 83.4085 29.738 83.2931 29.4765C83.1777 29.215 83.022 28.9998 82.826 28.8336C82.6327 28.6675 82.4152 28.5449 82.1736 28.4659C81.932 28.3869 81.6958 28.346 81.4622 28.346H80.1118V32.4347H81.5105C82.0528 32.4347 82.5146 32.2686 82.8958 31.9362C83.277 31.6039 83.4649 31.1054 83.4649 30.438H83.4676Z" fill="white"/>
<path d="M96.6278 35.5537L95.9513 32.5055H92.2465L91.57 35.5537H87.8438L91.8492 18.8203H96.5312L100.515 35.5537H96.6251H96.6278ZM94.158 22.4595H94.064L92.6653 29.5745H95.4842L94.1553 22.4595H94.158Z" fill="white"/>
<path d="M109.096 35.5537L105.276 25.366H105.206L105.3 35.5537H101.969V18.8203H106.068L109.864 29.1496H109.934L109.864 18.8203H113.078V35.5537H109.094H109.096Z" fill="white"/>
<path d="M123.353 35.5537L119.836 27.7767H119.766V35.5537H116.016V18.8203H119.766V25.7937H119.836L123.237 18.8203H127.406L123.167 26.4774L127.664 35.5537H123.355H123.353Z" fill="white"/>
<path d="M136.069 22.8123C135.79 22.48 135.463 22.2267 135.092 22.0442C134.719 21.8644 134.33 21.7718 133.927 21.7718C133.524 21.7718 133.133 21.9053 132.797 22.1749C132.464 22.4446 132.298 22.8859 132.298 23.5015C132.298 24.0218 132.467 24.4277 132.81 24.7219C133.151 25.0133 133.656 25.3347 134.324 25.6807C134.7 25.8714 135.095 26.0947 135.508 26.3562C135.922 26.6177 136.303 26.9364 136.647 27.3151C136.99 27.6937 137.275 28.1486 137.503 28.6771C137.729 29.2055 137.844 29.832 137.844 30.5593C137.844 31.4582 137.704 32.2509 137.423 32.9401C137.141 33.6265 136.762 34.1958 136.287 34.6453C135.812 35.0947 135.259 35.4352 134.636 35.664C134.01 35.8929 133.366 36.0073 132.698 36.0073C131.704 36.0073 130.8 35.8193 129.983 35.4407C129.167 35.062 128.512 34.6208 128.016 34.1168L129.924 31.2812C130.281 31.6598 130.692 31.9622 131.159 32.191C131.626 32.4198 132.099 32.5342 132.579 32.5342C133.03 32.5342 133.409 32.3844 133.72 32.0847C134.032 31.7851 134.188 31.3683 134.188 30.8317C134.188 30.2951 134.002 29.8429 133.629 29.5188C133.256 29.1946 132.714 28.8541 132 28.4918C131.549 28.2712 131.127 28.026 130.73 27.7591C130.335 27.4921 129.983 27.168 129.683 26.7893C129.379 26.4107 129.143 25.9694 128.971 25.4655C128.8 24.9616 128.716 24.3623 128.716 23.6704C128.716 22.7415 128.867 21.9407 129.17 21.2706C129.473 20.6005 129.868 20.053 130.357 19.628C130.845 19.2031 131.388 18.8871 131.986 18.6828C132.585 18.4785 133.186 18.375 133.79 18.375C134.69 18.375 135.498 18.5248 136.212 18.8217C136.926 19.1186 137.525 19.5272 138.005 20.0421L136.072 22.8178L136.069 22.8123Z" fill="white"/>
<path d="M13.8358 11.0302C13.1244 11.0302 12.4103 11.0302 11.6989 11.0302C11.5136 11.0302 11.5002 11.0466 11.4465 11.2236C11.3472 11.5587 11.2344 11.891 11.1378 12.2261C11.0626 12.4876 10.9982 12.7518 10.9391 13.016C10.8559 13.4001 10.778 13.7869 10.7055 14.1737C10.6626 14.4025 10.625 14.6313 10.5982 14.8629C10.5525 15.2742 10.5149 15.6882 10.4747 16.0995C10.472 16.1322 10.4693 16.1622 10.4639 16.1949C10.4371 16.391 10.4559 16.4128 10.6572 16.4128C11.7311 16.4128 12.8049 16.4128 13.8814 16.4128C14.5365 16.4128 15.0224 16.756 15.2452 17.3498C15.4573 17.9137 15.2882 18.5266 14.7942 18.9325C14.5204 19.1586 14.2036 19.2348 13.86 19.2321C13.2532 19.2321 12.6465 19.2321 12.0371 19.2321C11.5861 19.2321 11.1351 19.2321 10.6814 19.2321C10.4559 19.2321 10.4398 19.2539 10.4639 19.4773C10.5069 19.8777 10.5391 20.2781 10.5874 20.6785C10.625 20.9836 10.676 21.286 10.7324 21.5883C10.7968 21.9397 10.8613 22.2939 10.9391 22.6425C11.0035 22.9313 11.0841 23.2146 11.1619 23.4978C11.2264 23.7376 11.2988 23.9745 11.3686 24.2115C11.3982 24.3123 11.417 24.424 11.4707 24.5112C11.5002 24.5602 11.5888 24.5929 11.6532 24.6011C11.8626 24.6228 12.072 24.6174 12.2814 24.6446C12.6653 24.691 12.9526 24.9143 13.1647 25.2248C13.3741 25.5327 13.4519 25.8786 13.3821 26.26C13.3069 26.6713 13.0895 26.9736 12.7512 27.1943C12.668 27.2488 12.6707 27.2923 12.711 27.3659C12.8935 27.7009 13.0787 28.0305 13.2506 28.371C13.4412 28.7524 13.46 29.1446 13.3069 29.5478C13.1593 29.9319 12.8908 30.1934 12.5257 30.3432C12.1767 30.4848 11.8223 30.4739 11.4707 30.3214C11.0841 30.1525 10.8613 29.8365 10.676 29.4797C10.5176 29.1746 10.3485 28.8722 10.1928 28.5644C10.0559 28.292 9.93237 28.0115 9.80083 27.7336C9.76861 27.6628 9.74982 27.5784 9.7015 27.5212C9.66123 27.4748 9.58874 27.434 9.527 27.4285C9.37129 27.4149 9.21558 27.4231 9.05987 27.4231C8.21422 27.4231 7.37125 27.4231 6.5256 27.4231C6.4907 27.4231 6.45311 27.4176 6.4209 27.4231C6.386 27.4313 6.33499 27.4449 6.32693 27.4694C6.3162 27.4966 6.33767 27.5457 6.35915 27.5729C6.49875 27.7363 6.63835 27.8998 6.786 28.0578C7.30145 28.6107 7.83569 29.1446 8.43973 29.5995C8.92296 29.9673 9.41693 30.3241 9.93237 30.6428C10.429 30.9534 10.9498 31.2258 11.476 31.4845C11.8572 31.6725 12.2626 31.8141 12.6626 31.9612C13.0707 32.111 13.4009 32.348 13.5861 32.7566C13.7338 33.0781 13.7633 33.4131 13.6533 33.7563C13.5459 34.0968 13.3499 34.3719 13.0465 34.549C12.7244 34.7342 12.3781 34.835 12.0076 34.7043C11.6022 34.5626 11.1915 34.4264 10.7968 34.2575C10.2653 34.0287 9.73908 33.7863 9.229 33.5166C8.62497 33.1952 8.05046 32.822 7.49206 32.4216C6.60077 31.7814 5.77659 31.065 5.01684 30.2724C4.37253 29.5995 3.77923 28.8777 3.24768 28.1095C2.81814 27.4885 2.41276 26.8511 2.0745 26.1701C1.849 25.7179 1.61812 25.2684 1.41677 24.8054C1.23959 24.3995 1.0973 23.98 0.949649 23.5605C0.836895 23.2472 0.732195 22.9285 0.640918 22.6071C0.56038 22.3238 0.495949 22.0351 0.434203 21.7463C0.356349 21.384 0.28118 21.0218 0.216749 20.6567C0.173795 20.4198 0.138895 20.1828 0.112049 19.9431C-0.00607402 18.8072 -0.0302356 17.6658 0.0368798 16.5245C0.0664106 16.0314 0.125472 15.5411 0.195272 15.0535C0.248964 14.6749 0.332188 14.3017 0.418095 13.9313C0.506688 13.539 0.597965 13.1495 0.713403 12.7654C0.828842 12.3786 0.971126 12 1.11073 11.6186C1.23153 11.2945 1.35503 10.973 1.49463 10.6571C1.64228 10.3275 1.80336 10.006 1.9698 9.68732C2.14162 9.36044 2.31343 9.03356 2.50941 8.72303C2.83693 8.2082 3.16983 7.69337 3.5242 7.19761C4.2222 6.22515 5.02221 5.34531 5.91082 4.55263C6.45043 4.07321 7.0142 3.61831 7.59407 3.19065C8.10952 2.81474 8.6545 2.47969 9.20216 2.15554C9.5619 1.94035 9.9458 1.76601 10.3243 1.58623C10.6868 1.41462 11.0519 1.25118 11.4223 1.10409C11.7096 0.98968 12.0076 0.897065 12.3029 0.799002C12.5391 0.720007 12.7754 0.643736 13.0143 0.57836C13.2989 0.502089 13.5861 0.425818 13.8761 0.371338C14.3271 0.284171 14.7808 0.216072 15.2318 0.137077C15.2613 0.131629 15.2936 0.126181 15.3231 0.120733C16.4828 0.00360239 17.6453 -0.053601 18.8077 0.03629C19.3715 0.0798736 19.9353 0.172489 20.4963 0.256932C20.8641 0.311411 21.2319 0.384958 21.5943 0.466677C21.8655 0.526605 22.134 0.611048 22.4024 0.692767C22.7192 0.788106 23.0333 0.883445 23.3474 0.98968C23.5998 1.07685 23.8494 1.17491 24.0964 1.27842C24.3944 1.40372 24.6897 1.53447 24.9796 1.6734C25.2937 1.82594 25.6078 1.98121 25.9139 2.15009C26.2441 2.3326 26.5716 2.52055 26.883 2.73302C27.4414 3.1171 28.0052 3.49846 28.5314 3.92612C29.0549 4.35106 29.5515 4.81413 30.0348 5.28538C30.5985 5.83562 31.1086 6.43762 31.5704 7.07503C31.8925 7.51904 32.2039 7.96849 32.4912 8.43702C32.7597 8.87558 33.0013 9.33593 33.2348 9.79628C33.4389 10.1967 33.6268 10.608 33.8013 11.0221C33.9436 11.3626 34.0644 11.7112 34.1825 12.0599C34.2926 12.3868 34.4 12.7164 34.4912 13.0487C34.5718 13.3402 34.6228 13.6398 34.7033 13.9313C34.7758 14.1928 34.8188 14.457 34.7865 14.7267C34.7355 15.1788 34.4993 15.5166 34.1261 15.759C33.8093 15.9633 33.4577 15.996 33.1033 15.9225C32.7516 15.8489 32.4751 15.6446 32.2684 15.3423C32.1127 15.1135 32.059 14.8465 31.9999 14.5796C31.9328 14.2799 31.8523 13.983 31.7717 13.6888C31.71 13.4627 31.6429 13.2339 31.5677 13.0133C31.4764 12.7463 31.3771 12.4821 31.2724 12.2179C31.1757 11.9782 31.0684 11.7412 30.9637 11.5069C30.9019 11.3707 30.8455 11.2318 30.765 11.1065C30.7328 11.0575 30.6415 11.0248 30.5771 11.0248C30.1368 11.0166 29.6965 11.0221 29.2562 11.0221C28.3811 11.0221 27.5059 11.0221 26.628 11.0221C26.4562 11.0221 26.4428 11.0548 26.4911 11.2182C26.5743 11.496 26.6468 11.7793 26.7166 12.0626C26.7944 12.3759 26.8642 12.6919 26.934 13.0051C26.9716 13.174 27.0146 13.3429 27.0414 13.5145C27.0898 13.8169 27.1381 14.1219 27.1703 14.427C27.2374 15.0481 26.8965 15.5902 26.3783 15.8299C25.7394 16.1268 24.9716 15.8898 24.6145 15.2851C24.4615 15.0263 24.4212 14.7403 24.3702 14.4543C24.2951 14.0429 24.2226 13.6316 24.1394 13.223C24.0776 12.9152 24.0051 12.6074 23.9273 12.3023C23.8628 12.0544 23.785 11.812 23.7125 11.5669C23.6749 11.4416 23.6347 11.319 23.5998 11.1937C23.5541 11.0357 23.538 11.0221 23.3716 11.0193C23.0145 11.0193 22.6548 11.0193 22.2977 11.0193C21.2776 11.0193 20.2574 11.0193 19.2373 11.0193C19.0565 11.0193 18.9661 11.1101 18.9661 11.2917C18.9661 12.5284 18.9661 13.7651 18.9661 14.9991C18.9661 15.3096 18.9124 15.6092 18.7406 15.8789C18.4319 16.3665 17.7795 16.6552 17.2318 16.4891C16.7379 16.3393 16.405 16.026 16.2439 15.5439C16.1822 15.3559 16.1822 15.138 16.1822 14.9337C16.1768 13.7324 16.1822 12.5339 16.1822 11.3326C16.1822 11.2945 16.1822 11.2536 16.1822 11.2155C16.1822 11.0466 16.158 11.0221 15.9942 11.0221C15.5969 11.0221 15.1996 11.0221 14.8023 11.0221C14.4801 11.0221 14.1553 11.0221 13.8331 11.0221L13.8358 11.0302ZM5.26383 19.2321C4.52824 19.2321 3.79266 19.2321 3.05707 19.2321C2.89063 19.2321 2.86647 19.2621 2.89063 19.4282C2.90673 19.5535 2.92821 19.6788 2.947 19.8014C3.01412 20.2127 3.08123 20.6241 3.15103 21.0354C3.17251 21.1661 3.20473 21.2969 3.23963 21.4276C3.33896 21.779 3.44097 22.1304 3.55104 22.4764C3.64232 22.7651 3.7336 23.0511 3.84635 23.3317C3.97521 23.6586 4.12555 23.98 4.26783 24.3014C4.35553 24.5012 4.50856 24.6011 4.7269 24.6011C5.92961 24.6011 7.13232 24.6011 8.33503 24.6011C8.38067 24.6011 8.42899 24.6011 8.47463 24.6011C8.55785 24.6011 8.58738 24.5575 8.5659 24.4785C8.50684 24.2633 8.44241 24.0481 8.38872 23.8302C8.30281 23.487 8.22227 23.1437 8.14442 22.7978C8.10415 22.618 8.06657 22.4355 8.03703 22.253C7.95918 21.7981 7.87327 21.3459 7.81421 20.8883C7.75247 20.4007 7.71757 19.9077 7.66924 19.4173C7.65314 19.2512 7.62629 19.2294 7.46521 19.2294C6.72963 19.2294 5.99404 19.2294 5.25846 19.2294L5.26383 19.2321ZM5.27188 16.4128C6.00747 16.4128 6.74305 16.4128 7.47864 16.4128C7.63971 16.4128 7.65314 16.3992 7.67193 16.233C7.68267 16.1322 7.6934 16.0287 7.70414 15.9279C7.7471 15.4839 7.76857 15.0372 7.83837 14.5986C7.95113 13.8959 8.08536 13.1958 8.23033 12.4985C8.3216 12.0599 8.45047 11.6295 8.56322 11.1964C8.59544 11.0738 8.57396 11.0357 8.45047 11.0357C7.15111 11.0357 5.84907 11.0357 4.54972 11.0357C4.46381 11.0357 4.40207 11.0711 4.36985 11.1419C4.24099 11.4198 4.11213 11.6976 3.994 11.9782C3.8893 12.2261 3.79534 12.4821 3.70138 12.7354C3.62084 12.9534 3.54567 13.1713 3.47856 13.3919C3.40339 13.6398 3.33627 13.8904 3.27453 14.141C3.19399 14.4624 3.11345 14.7811 3.05439 15.108C2.98727 15.4676 2.947 15.8326 2.89331 16.1949C2.86378 16.3965 2.87989 16.4155 3.07587 16.4155C3.80877 16.4155 4.53898 16.4155 5.27188 16.4155V16.4128ZM6.25982 8.18369C6.34841 8.19458 6.41016 8.21093 6.4719 8.21093C7.47058 8.21093 8.47194 8.21093 9.47062 8.21093C9.7525 8.21093 9.6666 8.23272 9.79277 7.99028C9.95922 7.66613 10.0961 7.32836 10.268 7.00693C10.5042 6.56565 10.7458 6.12436 11.0089 5.69943C11.3579 5.14101 11.7284 4.59894 12.0908 4.05142C12.1177 4.01056 12.1418 3.9697 12.166 3.92612C12.1579 3.9125 12.1499 3.89888 12.1418 3.88526C12.0425 3.91795 11.9378 3.94519 11.8411 3.98877C9.66391 4.93127 7.80884 6.31504 6.25713 8.18096L6.25982 8.18369ZM28.8616 8.18096C28.8213 8.12648 28.7972 8.09107 28.7703 8.06111C28.2146 7.43187 27.6294 6.8326 26.9877 6.29598C26.4293 5.83018 25.8495 5.39706 25.2239 5.0266C24.8562 4.80869 24.483 4.59894 24.1045 4.40282C23.7662 4.22848 23.4172 4.07866 23.0709 3.92067C23.0467 3.90978 23.0118 3.92067 22.9447 3.92067C23.0467 4.06777 23.1273 4.17945 23.2024 4.29658C23.4843 4.72424 23.7689 5.15191 24.0427 5.58502C24.2306 5.88738 24.4051 6.19791 24.577 6.51117C24.7515 6.82715 24.9179 7.14585 25.0763 7.47001C25.1783 7.6743 25.2588 7.88677 25.3528 8.0938C25.3877 8.16734 25.4333 8.22182 25.53 8.22182C26.5877 8.22182 27.6482 8.22182 28.7059 8.22182C28.7515 8.22182 28.7972 8.20275 28.8616 8.19186V8.18096ZM12.7673 8.18096C12.8532 8.19458 12.9042 8.21093 12.9553 8.21093C13.9754 8.21093 14.9929 8.21093 16.013 8.21093C16.1634 8.21093 16.1822 8.18913 16.1822 8.03932C16.1822 7.54083 16.1822 7.04507 16.1822 6.54658C16.1822 5.61498 16.1822 4.68338 16.1822 3.75179C16.1822 3.70548 16.1553 3.66189 16.1392 3.61559C16.1016 3.63738 16.056 3.651 16.0265 3.68096C15.4385 4.28568 14.9016 4.93127 14.4049 5.61226C14.0828 6.05354 13.7714 6.50572 13.4761 6.9688C13.2318 7.35015 13.017 7.75058 12.7673 8.17824V8.18096ZM18.9688 5.8901C18.9688 6.59289 18.9688 7.29567 18.9688 7.99846C18.9688 8.21093 18.9688 8.21365 19.1755 8.21365C20.1473 8.21365 21.1219 8.21365 22.0937 8.21365C22.1286 8.21365 22.1635 8.21365 22.1984 8.21365C22.2762 8.2082 22.3058 8.17551 22.2628 8.09924C22.0319 7.69065 21.8199 7.26843 21.5648 6.87618C21.1863 6.29053 20.797 5.71032 20.3755 5.15736C19.9755 4.63163 19.5272 4.14131 19.0977 3.6401C19.0762 3.61559 19.0359 3.60469 19.0064 3.58835C18.993 3.62376 18.9742 3.65917 18.9688 3.69458C18.9607 3.73272 18.9688 3.77358 18.9688 3.81171C18.9688 4.50633 18.9688 5.20094 18.9688 5.89555V5.8901Z" fill="#15D1C6"/>
<path d="M27.5246 26.5817C31.2267 26.5817 34.9287 26.5817 38.6281 26.5817C38.6738 26.5817 38.7248 26.5708 38.7677 26.5871C38.8026 26.6008 38.8295 26.6416 38.8537 26.6716C38.8617 26.6825 38.8537 26.7015 38.8537 26.7179C38.8537 28.2542 38.8537 29.7905 38.8402 31.3268C38.8375 31.6129 38.7543 31.9016 38.7033 32.1876C38.6389 32.5526 38.4966 32.8904 38.3167 33.2064C38.1476 33.5033 37.9436 33.7866 37.7288 34.0535C37.3664 34.5057 36.9073 34.8462 36.3972 35.1077C35.7261 35.4509 35.0093 35.5871 34.2576 35.5871C31.3824 35.579 28.5045 35.5844 25.6292 35.5844C24.0775 35.5844 22.5231 35.5844 20.9714 35.5844C20.711 35.5844 20.4479 35.5899 20.1902 35.5626C19.9405 35.5354 19.6962 35.4673 19.4493 35.4155C19.1271 35.3501 18.8318 35.2085 18.5419 35.056C18.0855 34.8162 17.6935 34.4948 17.3445 34.1135C16.9848 33.7185 16.7083 33.269 16.5096 32.776C16.3619 32.411 16.2492 32.0323 16.2223 31.6346C16.1982 31.3078 16.1848 30.9809 16.1821 30.654C16.1767 29.3656 16.1821 28.0799 16.1821 26.7914C16.1821 26.5926 16.1901 26.5844 16.3861 26.5844C20.0989 26.5844 23.8118 26.5844 27.5246 26.5844V26.5817Z" fill="#15D1C6"/>
<path d="M27.5407 23.7701C23.8494 23.7701 20.1607 23.7701 16.4694 23.7701C16.4291 23.7701 16.3915 23.7701 16.3513 23.7701C16.2143 23.7701 16.1875 23.7455 16.1875 23.6039C16.1875 23.4377 16.2009 23.2716 16.2009 23.1081C16.2009 22.6859 16.2788 22.2746 16.4103 21.8769C16.7003 21.0107 17.1996 20.2943 17.9137 19.7331C18.2224 19.4907 18.5553 19.2891 18.9151 19.1393C19.358 18.9541 19.8225 18.8342 20.303 18.8097C20.5446 18.7988 20.7862 18.7825 21.0252 18.7825C25.4118 18.7825 29.7985 18.7797 34.1879 18.7825C34.5342 18.7825 34.8832 18.8015 35.2214 18.8696C35.5543 18.935 35.8792 19.0521 36.1933 19.1802C36.8564 19.4471 37.3987 19.8884 37.8497 20.4441C38.1342 20.7955 38.3597 21.1823 38.5289 21.6072C38.7866 22.2474 38.8779 22.912 38.8591 23.5957C38.8537 23.7673 38.8537 23.7728 38.6792 23.7728C34.9664 23.7728 31.2509 23.7728 27.5381 23.7728L27.5407 23.7701Z" fill="#15D1C6"/>
</g>
<defs>
<clipPath id="clip0_3009_14905">
<rect width="138" height="36" fill="white"/>
</clipPath>
</defs>
</svg>
