<svg width="13" height="14" viewBox="0 0 13 14" fill="none" xmlns="http://www.w3.org/2000/svg">
<path fill-rule="evenodd" clip-rule="evenodd" d="M5.99996 10.3048C8.20908 10.3048 9.99993 8.45933 9.99993 6.18286C9.99993 3.9064 8.20908 2.06095 5.99996 2.06095C3.79083 2.06095 1.99999 3.9064 1.99999 6.18286C1.99999 8.45933 3.79083 10.3048 5.99996 10.3048ZM5.99996 12.3657C9.31364 12.3657 11.9999 9.59756 11.9999 6.18286C11.9999 2.76816 9.31364 0 5.99996 0C2.68627 0 0 2.76816 0 6.18286C0 9.59756 2.68627 12.3657 5.99996 12.3657Z" fill="#09152F"/>
<path fill-rule="evenodd" clip-rule="evenodd" d="M12.7071 13.6982C12.3166 14.1006 11.6834 14.1006 11.2929 13.6982L8.97325 11.3078C8.58273 10.9054 8.58273 10.2529 8.97325 9.85049C9.36377 9.44807 9.99693 9.44807 10.3875 9.85049L12.7071 12.2409C13.0976 12.6433 13.0976 13.2958 12.7071 13.6982Z" fill="#09152F"/>
</svg>
