<svg width="113" height="40" viewBox="0 0 113 40" fill="none" xmlns="http://www.w3.org/2000/svg">
<path d="M10.0492 9.05717C10.4578 8.86272 10.8427 9.21088 11.1782 9.40625C14.1173 11.4128 17.114 13.3313 20.0522 15.3378C20.843 15.8869 20.7872 17.2119 19.9699 17.7101C16.8864 19.7731 13.7809 21.8037 10.7028 23.875C10.4862 24.0222 10.1827 24.0306 9.96145 23.8898C6.99401 21.9203 4.02201 19.9574 1.05183 17.9925C0.586515 17.6944 0.0288648 17.323 0.0206372 16.699C-0.101863 16.0425 0.338772 15.4388 0.87174 15.1193C3.93973 13.1119 6.95379 11.0202 10.0492 9.05717ZM13.46 13.0563C13.95 13.8582 14.472 14.6397 14.9364 15.4582C15.4868 15.4943 16.038 15.4906 16.5884 15.4628C15.5316 14.6795 14.4382 13.9415 13.46 13.0563ZM4.02384 15.4638C4.56321 15.4814 5.1044 15.5091 5.64285 15.461C6.15205 14.698 6.61737 13.9063 7.1412 13.1535C6.10634 13.9295 5.08337 14.723 4.02384 15.4638ZM7.83506 15.4786C8.33146 15.4814 8.82786 15.4804 9.32426 15.4795C9.32152 14.7174 9.32061 13.9554 9.31786 13.1933C8.86992 13.985 8.34975 14.7304 7.83506 15.4786ZM11.3281 13.2646C11.3163 14.0026 11.3172 14.7415 11.3281 15.4795C11.8044 15.4804 12.2807 15.4804 12.757 15.4795C12.2826 14.7397 11.8044 14.0026 11.3281 13.2646ZM4.02658 17.4916C5.07698 18.2777 6.12097 19.0722 7.17137 19.8583C6.62011 19.0972 6.13377 18.2907 5.63554 17.4943C5.09892 17.4906 4.56229 17.4943 4.02658 17.4916ZM7.8314 17.4925C8.34152 18.2592 8.85803 19.0222 9.33066 19.8138C9.32152 19.0407 9.32335 18.2666 9.32975 17.4934C8.82969 17.4925 8.33055 17.4934 7.8314 17.4925ZM11.3336 17.4869C11.3163 18.2397 11.3181 18.9925 11.3227 19.7453C11.799 18.9879 12.288 18.2388 12.7817 17.4934C12.299 17.4962 11.8163 17.4832 11.3336 17.4869ZM15.0525 17.4906C14.4775 18.2712 13.9857 19.1083 13.4774 19.9342C14.4592 19.0277 15.5727 18.2879 16.6395 17.4906C16.1102 17.4934 15.5818 17.4943 15.0525 17.4906Z" fill="#D0D3D6"/>
<path d="M24.9058 15.9133C25.82 15.9133 26.7342 15.9031 27.6474 15.9049C28.8185 19.2059 30.0023 22.505 31.0171 25.8597C31.3169 24.4643 31.8472 23.1347 32.3189 21.793C33.0228 19.8272 33.7414 17.867 34.4599 15.9068C35.3613 15.9123 36.2636 15.9133 37.1659 15.8984C37.4273 19.4689 37.6157 23.043 37.8479 26.6144C37.931 27.6672 37.9786 28.7209 38.0124 29.7764C37.2271 29.7774 36.4418 29.7755 35.6566 29.7764C35.5679 27.606 35.439 25.4366 35.3247 23.2671C35.2772 22.1606 35.2881 21.0467 35.119 19.9494C34.8667 21.0411 34.4791 22.0939 34.1052 23.1476C33.3181 25.3347 32.5282 27.5209 31.7439 29.7088C31.1606 29.6977 30.5765 29.6857 29.9932 29.7227C29.0873 27.2329 28.2736 24.7088 27.4244 22.1976C27.1949 21.5411 27.0294 20.8643 26.8713 20.1874C26.6363 23.3791 26.4983 26.5773 26.2844 29.77C25.5119 29.7718 24.7403 29.7709 23.9688 29.7561C24.2988 25.143 24.6114 20.5291 24.9058 15.9133Z" fill="#D0D3D6"/>
<path d="M73.668 15.9062C74.4533 15.9062 75.2395 15.9062 76.0257 15.9062C76.0257 17.5257 76.0312 19.1452 76.0266 20.7647C77.4902 19.3109 80.0792 19.2906 81.5602 20.7286C82.6554 21.8128 83.0805 23.4277 83.0128 24.9444C82.9954 26.5249 82.4049 28.2027 81.0985 29.1509C79.5453 30.3602 77.1054 30.2843 75.7341 28.8203C75.725 29.1389 75.7158 29.4583 75.7058 29.7778C74.9881 29.7787 74.2714 29.763 73.5547 29.7639C73.6781 28.7815 73.6735 27.7898 73.6735 26.8009C73.6799 23.1693 73.6726 19.5378 73.668 15.9062ZM77.7032 21.761C76.9381 22.0147 76.3283 22.6767 76.1144 23.4601C75.9462 24.2212 76.0367 25.0101 76.0248 25.7833C76.0065 26.9481 77.0725 27.9814 78.2161 27.9435C79.112 28.024 79.9366 27.4 80.3004 26.6009C80.8645 25.2286 80.8087 23.4712 79.8132 22.3147C79.2747 21.7684 78.4364 21.5202 77.7032 21.761Z" fill="#D0D3D6"/>
<path d="M104.32 15.9211C105.107 15.9174 105.894 15.9007 106.682 15.9081C106.671 18.4156 106.628 20.9249 106.715 23.4314C107.719 22.2203 108.709 20.9962 109.78 19.8434C110.731 19.9008 111.683 19.8452 112.635 19.8573C111.353 21.2601 110.064 22.6555 108.76 24.037C110.178 25.9435 111.596 27.85 113.003 29.7648C112.035 29.7695 111.068 29.7621 110.101 29.7611C109.235 28.4565 108.293 27.2055 107.42 25.9064C107.344 25.7777 107.226 25.6888 107.101 25.6148C106.907 25.8463 106.646 26.0861 106.671 26.4185C106.665 27.5342 106.666 28.6491 106.672 29.7648C105.892 29.7658 105.112 29.7658 104.332 29.7648C104.334 25.1499 104.349 20.5351 104.32 15.9211Z" fill="#D0D3D6"/>
<path d="M50.2935 18.3014C51.0577 18.0301 51.8284 17.7773 52.61 17.5625C52.6045 18.3236 52.6045 19.0847 52.6018 19.8459C53.3048 19.8764 54.0087 19.8449 54.7126 19.8736C54.837 19.857 54.9256 19.9514 55.0189 20.019C55.018 20.6246 55.028 21.2292 55.0235 21.8348C54.2153 21.8422 53.4072 21.8431 52.599 21.8413C52.6018 23.1228 52.6027 24.4043 52.6045 25.6858C52.6164 26.2386 52.5698 26.8043 52.7243 27.3423C52.7901 27.5488 52.9099 27.7775 53.132 27.8414C53.676 28.0182 54.2491 27.8553 54.773 27.6858C54.8699 28.3479 54.8872 29.0173 54.9119 29.6849C54.0078 29.971 53.015 30.1414 52.0908 29.8488C51.5139 29.6646 50.9864 29.2747 50.7149 28.7173C50.4114 28.0942 50.3227 27.3904 50.3035 26.7034C50.3017 25.083 50.3044 23.4617 50.3026 21.8413C49.8346 21.8422 49.3656 21.8413 48.8984 21.8422C48.9039 21.182 48.9112 20.5218 48.9076 19.8616C49.372 19.8588 49.8355 19.8616 50.2999 19.8598C50.2981 19.3403 50.2917 18.8209 50.2935 18.3014Z" fill="#D0D3D6"/>
<path d="M0.039428 19.3798C0.0705102 18.9252 0.642788 18.6076 1.03223 18.8483C1.90527 19.3252 2.68873 19.9456 3.52337 20.4854C5.78506 21.9826 7.99098 23.5651 10.292 25.0003C10.7235 24.7892 11.1303 24.5308 11.528 24.2614C14.0858 22.528 16.641 20.79 19.2043 19.0659C19.5088 18.8557 19.8735 18.7289 20.2447 18.7863C20.369 18.9622 20.497 19.1344 20.6268 19.3057C20.6268 22.3252 20.6094 25.3447 20.6259 28.3633C20.6113 29.0902 19.9869 29.7892 19.2464 29.7652C13.306 29.7679 7.36477 29.7707 1.42441 29.7642C0.905158 29.8152 0.46178 29.4494 0.196667 29.0327C0.0156592 28.7513 0.049484 28.404 0.0458273 28.0846C0.0430847 25.1836 0.0375997 22.2817 0.039428 19.3798ZM11.8689 26.6364C11.5069 26.8475 11.1604 27.1179 10.7372 27.1864C10.1366 27.292 9.51492 27.116 9.00389 26.792C7.01646 25.5345 5.02812 24.2771 3.03429 23.0299C2.84231 22.9123 2.63936 22.7576 2.39985 22.8225C2.36785 24.3466 2.39345 25.8716 2.37973 27.3957C2.66221 27.4707 2.95201 27.5235 3.24455 27.5151C8.22867 27.5086 13.2119 27.5281 18.1951 27.4892C18.3295 26.6457 18.2828 25.7882 18.2883 24.9373C18.2847 24.2003 18.3349 23.4549 18.1887 22.7271C16.0303 23.9428 13.9889 25.3558 11.8689 26.6364Z" fill="#D0D3D6"/>
<path d="M40.5202 21.325C41.9143 19.4833 44.8342 19.0537 46.6333 20.5269C47.9991 21.738 48.3136 23.7501 48.0421 25.4881C45.9312 25.4881 43.8204 25.4871 41.7105 25.4881C41.8083 26.439 42.3513 27.4168 43.2737 27.7557C44.5773 28.1511 45.9888 27.9122 47.2275 27.3992C47.3756 28.0344 47.5731 28.6603 47.6472 29.3113C46.0711 29.9233 44.314 30.1761 42.6575 29.7696C41.2058 29.3918 40.0165 28.1918 39.6279 26.727C39.1608 24.9149 39.382 22.8445 40.5202 21.325ZM42.2178 22.4704C42.0176 22.8112 41.8841 23.1871 41.7379 23.5547C43.1092 23.564 44.4795 23.563 45.8508 23.5547C45.7658 23.1954 45.6917 22.8288 45.5281 22.4954C45.2575 21.926 44.6441 21.5639 44.0279 21.5473C43.3231 21.5047 42.5862 21.8491 42.2178 22.4704Z" fill="#D0D3D6"/>
<path d="M58.913 20.8796C59.6342 19.9481 60.8922 19.4185 62.0413 19.7611C62.0312 20.5055 62.0349 21.249 62.0449 21.9935C61.5367 21.9833 61.0147 21.8972 60.5173 22.0389C59.9131 22.2713 59.4816 22.8389 59.296 23.4528C59.1598 23.8713 59.1744 24.3176 59.1762 24.7519C59.1762 26.4241 59.1744 28.0964 59.1753 29.7686C58.3836 29.7696 57.5929 29.7686 56.8012 29.7686C56.7774 26.4639 56.9146 23.1574 56.75 19.8546C57.4603 19.8564 58.1697 19.8536 58.88 19.8564C58.8901 20.1972 58.902 20.5379 58.913 20.8796Z" fill="#D0D3D6"/>
<path d="M66.6521 19.7395C67.9118 19.5201 69.2648 19.7775 70.3125 20.5349C71.3802 21.2683 72.0238 22.5164 72.1957 23.7933C72.3383 25.0591 72.2277 26.3961 71.6225 27.5341C70.9945 28.7174 69.8307 29.573 68.5408 29.8619C67.069 30.2027 65.4234 29.8832 64.2679 28.873C63.1745 27.8989 62.6388 26.3943 62.6653 24.9396C62.637 23.5414 63.0767 22.0849 64.0659 21.0794C64.7479 20.3571 65.6776 19.8858 66.6521 19.7395ZM66.9236 21.6784C66.3623 21.8229 65.8732 22.2044 65.5724 22.7025C65.0413 23.56 64.9298 24.6257 65.077 25.6109C65.2141 26.6248 65.8339 27.6295 66.8249 27.9656C67.665 28.2304 68.6295 27.8591 69.135 27.1424C70.1278 25.7813 70.1059 23.747 69.1122 22.3951C68.5883 21.772 67.7098 21.471 66.9236 21.6784Z" fill="#D0D3D6"/>
<path d="M84.7556 20.6244C86.0867 19.8595 87.6673 19.4632 89.1894 19.7493C90.0881 19.8882 90.9465 20.3892 91.4264 21.1855C91.9758 22.117 92.0508 23.2355 92.0252 24.2957C92.0435 26.1207 91.9301 27.9587 92.2154 29.769C91.4813 29.7653 90.7472 29.7801 90.0131 29.7754C89.9939 29.5115 89.9765 29.2486 89.9601 28.9847C89.151 29.6958 88.0668 30.1023 86.9917 29.9754C86.0602 29.9106 85.1359 29.431 84.6469 28.6088C83.8131 27.2921 84.1459 25.3624 85.3892 24.4272C86.5968 23.4179 88.2368 23.3568 89.7224 23.1855C89.6136 22.6151 89.3924 21.9447 88.7991 21.7299C87.6262 21.3771 86.3353 21.7549 85.3828 22.4911C85.1661 21.8716 84.9622 21.2475 84.7556 20.6244ZM86.9414 25.8263C86.2723 26.4152 86.4469 27.7458 87.3327 28.0171C88.139 28.1912 89.0742 27.8476 89.4975 27.1097C89.8367 26.5041 89.7297 25.7781 89.7041 25.1142C88.7588 25.1291 87.6783 25.1309 86.9414 25.8263Z" fill="#D0D3D6"/>
<path d="M96.1019 20.7786C97.3141 19.5396 99.4002 19.2832 100.838 20.2647C101.69 20.8239 102.167 21.8147 102.333 22.8054C102.44 23.3573 102.403 23.9212 102.413 24.4795C102.419 26.2416 102.398 28.0037 102.434 29.7657C101.647 29.7722 100.861 29.7741 100.074 29.7722C100.081 28.1953 100.094 26.6194 100.083 25.0425C100.075 24.1527 100.169 23.1786 99.6553 22.399C99.286 21.8082 98.5071 21.6276 97.8681 21.7915C96.985 22.0277 96.3039 22.9017 96.3057 23.8305C96.2984 25.8083 96.303 27.787 96.3094 29.7657C95.525 29.7741 94.7416 29.7741 93.9572 29.7657C93.9599 27.8805 93.9682 25.9953 93.9654 24.1101C93.9554 22.748 94.0056 21.3823 93.8594 20.0248C93.9042 19.9915 93.9929 19.9248 94.0376 19.8915C94.6885 19.8276 95.3449 19.8711 95.9986 19.86C96.0324 20.1665 96.068 20.4721 96.1019 20.7786Z" fill="#D0D3D6"/>
</svg>
