<svg width="108" height="40" viewBox="0 0 108 40" fill="none" xmlns="http://www.w3.org/2000/svg">
<path fill-rule="evenodd" clip-rule="evenodd" d="M7.52124 12.636C7.54218 12.6336 7.75917 11.5 7.75917 11.5H8.95511C8.95511 11.5 9.17203 12.6336 9.19298 12.636H9.16213C9.35701 12.658 9.55095 12.688 9.74346 12.7261L9.72118 12.7189C9.74188 12.723 10.2797 11.7077 10.2797 11.7077L11.4209 12.0742C11.4209 12.0742 11.2972 13.2225 11.3165 13.2312L11.2807 13.2198C11.4603 13.2997 11.6367 13.387 11.8095 13.4815L11.7963 13.4721C11.8149 13.4824 12.6243 12.6784 12.6243 12.6784L13.6064 13.3779C13.6064 13.3779 13.1532 14.4357 13.1691 14.4499L13.1327 14.4241C13.2812 14.5547 13.4244 14.6915 13.5621 14.834L13.5567 14.8269C13.5714 14.8423 14.5783 14.3233 14.5783 14.3233L15.3114 15.2917C15.3114 15.2917 14.5704 16.1622 14.5813 16.1807L14.5505 16.1399C14.6541 16.3089 14.7511 16.4821 14.8411 16.6592C14.8507 16.6784 15.963 16.4917 15.963 16.4917L16.3799 17.6405C16.3799 17.6405 15.4188 18.244 15.4239 18.265L15.4043 18.2109C15.4554 18.4114 15.4984 18.6139 15.5331 18.818L15.5323 18.8012C15.5357 18.8225 16.6517 18.9853 16.6517 18.9853L16.7143 20.2093C16.7143 20.2093 15.621 20.4907 15.6197 20.5122L15.6154 20.428C15.6018 20.7009 15.5736 20.9729 15.5309 21.2426L16.4727 21.6746L16.2186 22.7592C15.2038 26.1557 12.0009 28.4946 8.35711 28.5C4.71327 28.4946 1.51042 26.1557 0.49564 22.7592L0.241558 21.6746L1.17807 21.245C1.13812 20.9955 1.11058 20.7441 1.09555 20.4917L1.0945 20.5122C1.09321 20.4907 0 20.2093 0 20.2093L0.0625485 18.9853C0.0625485 18.9853 1.17854 18.8225 1.18203 18.8012L1.17781 18.8841C1.21402 18.6492 1.26118 18.4161 1.31912 18.1858L1.29038 18.265C1.29544 18.244 0.334294 17.6405 0.334294 17.6405L0.751174 16.4917C0.751174 16.4917 1.86355 16.6784 1.87309 16.6592L1.84561 16.7349C1.94836 16.5228 2.06091 16.3158 2.18287 16.1147L2.13297 16.1807C2.14392 16.1622 1.40289 15.2917 1.40289 15.2917L2.13587 14.3233C2.13587 14.3233 3.14288 14.8423 3.15761 14.8269L3.11141 14.8879C3.27029 14.7184 3.43689 14.5566 3.61067 14.4033L3.54516 14.4499C3.56099 14.4357 3.10791 13.3779 3.10791 13.3779L4.08997 12.6784C4.08997 12.6784 4.89937 13.4824 4.91793 13.4721L4.86039 13.5131C5.05921 13.4016 5.26301 13.2997 5.47111 13.2077L5.39782 13.2312C5.41709 13.2225 5.29335 12.0742 5.29335 12.0742L6.43452 11.7077C6.43452 11.7077 6.97234 12.723 6.99304 12.7189L6.93286 12.7382C7.15203 12.6937 7.37309 12.6596 7.59532 12.636H7.52124ZM8.33627 20.2288C7.81498 19.9204 6.58872 18.773 6.60077 16.9062C6.61282 15.0394 7.81498 13.8921 8.33627 13.5836C8.85756 13.8921 10.0597 15.0394 10.0718 16.9062C10.0838 18.773 8.85756 19.9204 8.33627 20.2288ZM1.04004 22.9663C1.25657 23.5378 1.53488 24.0776 1.86675 24.577C3.49622 23.5634 5.51668 23.9793 7.85047 24.4597C7.90078 24.47 7.95123 24.4804 8.00183 24.4908V24.8695C6.31094 24.5083 4.54666 24.38 2.4624 25.364C2.79638 25.7531 3.16648 26.1088 3.56738 26.4257C5.40283 25.4176 6.81325 25.1424 8.00183 25.2254V25.8436C7.92548 25.8403 7.84907 25.8386 7.77267 25.8386C6.59735 25.8386 5.42217 26.2375 4.45654 27.0348C5.60539 27.7101 6.93706 28.0962 8.35735 28.0962C9.47883 28.0962 10.5448 27.855 11.5094 27.4213C10.717 26.6118 9.73684 26.1128 8.71286 25.9243V25.3196C9.57017 25.4865 10.3193 25.8222 11.0551 26.1518C11.5824 26.3881 12.1028 26.6213 12.6513 26.787C13.1212 26.4717 13.556 26.1062 13.9486 25.6978C12.3049 25.9416 10.8281 25.5675 9.34531 25.1919C9.13478 25.1385 8.92413 25.0852 8.71286 25.0335V24.6348C10.508 24.9895 12.4718 25.2882 14.5724 24.9657C14.9482 24.4669 15.2683 23.9216 15.5226 23.3395C12.8251 24.2933 10.5998 24.3601 8.71286 24.1084V23.3844C9.9974 23.2962 11.1258 22.7346 11.8596 21.9034L11.8614 21.9015C11.9723 21.7856 12.0808 21.6596 12.1858 21.5227C13.3115 20.0551 13.1878 18.4882 13.0193 17.9567C12.9853 17.9537 12.9476 17.9517 12.9064 17.9511C12.2879 17.9414 10.8872 18.2279 9.81639 19.5913C8.9051 20.7516 8.81036 21.9915 8.89477 22.7156C8.75972 22.8613 8.56896 22.9523 8.35735 22.9523C8.14573 22.9523 7.95497 22.8613 7.81992 22.7156C7.90433 21.9915 7.80959 20.7516 6.8983 19.5913C5.82754 18.2279 4.42687 17.9414 3.80838 17.9511C3.76715 17.9517 3.72936 17.9537 3.69541 17.9567C3.52692 18.4882 3.40322 20.0551 4.5289 21.5227C4.63321 21.6587 4.74107 21.7839 4.85127 21.8992C5.58497 22.7328 6.7151 23.2961 8.00183 23.3845V23.9968C7.0019 23.817 6.10087 23.5616 5.27587 23.3278C3.61896 22.8581 2.26875 22.4754 1.04004 22.9663Z" fill="#D0D3D6"/>
<path d="M21.7109 14.2891H25.1172V22.9033H30.4334V25.7176H21.7109V14.2891Z" fill="#D0D3D6"/>
<path d="M38.7781 23.831H34.8981L34.3643 25.7176H30.8828L35.026 14.2891H38.7405L42.8837 25.7176H39.3195L38.7781 23.831ZM38.0638 21.3598L36.8457 17.2514L35.635 21.3598H38.0638Z" fill="#D0D3D6"/>
<path d="M43.9922 14.2891H47.1729L51.3236 20.6114V14.2891H54.5343V25.7176H51.3236L47.1954 19.442V25.7176H43.9922V14.2891Z" fill="#D0D3D6"/>
<path d="M56.8594 14.2891H61.9199C62.9175 14.2891 63.722 14.4294 64.3336 14.71C64.9502 14.9907 65.459 15.3935 65.86 15.9184C66.2611 16.4433 66.5518 17.054 66.7323 17.7504C66.9128 18.4468 67.003 19.1848 67.003 19.9644C67.003 21.1857 66.8676 22.1342 66.5969 22.8098C66.3313 23.4802 65.9603 24.0441 65.4841 24.5015C65.0078 24.9536 64.4965 25.2551 63.9501 25.4058C63.2032 25.6137 62.5265 25.7176 61.9199 25.7176H56.8594V14.2891ZM60.2656 16.8772V23.1216H61.1003C61.8121 23.1216 62.3184 23.0411 62.6192 22.88C62.92 22.7137 63.1556 22.4278 63.326 22.0224C63.4965 21.6119 63.5817 20.9492 63.5817 20.0345C63.5817 18.8236 63.3912 17.9946 63.0102 17.5477C62.6292 17.1007 61.9976 16.8772 61.1153 16.8772H60.2656Z" fill="#D0D3D6"/>
<path d="M68.7891 14.2891H75.1655C76.2282 14.2891 77.0428 14.5619 77.6093 15.1076C78.1807 15.6533 78.4665 16.3289 78.4665 17.1345C78.4665 17.8101 78.2635 18.3896 77.8574 18.873C77.5867 19.1952 77.1907 19.4498 76.6693 19.6369C77.4614 19.8344 78.0429 20.1748 78.4138 20.6582C78.7898 21.1363 78.9778 21.7392 78.9778 22.4668C78.9778 23.0593 78.8449 23.592 78.5793 24.0649C78.3136 24.5379 77.9501 24.9121 77.489 25.1875C77.2032 25.359 76.7721 25.4837 76.1956 25.5617C75.4287 25.6656 74.9198 25.7176 74.6692 25.7176H68.7891V14.2891ZM72.2254 18.7716H73.7067C74.2381 18.7716 74.6065 18.6781 74.8121 18.491C75.0226 18.2987 75.1279 18.0232 75.1279 17.6646C75.1279 17.332 75.0226 17.0721 74.8121 16.885C74.6065 16.6979 74.2456 16.6044 73.7293 16.6044H72.2254V18.7716ZM72.2254 23.262H73.9624C74.5489 23.262 74.9625 23.1554 75.2031 22.9423C75.4437 22.724 75.564 22.433 75.564 22.0692C75.564 21.7314 75.4437 21.4611 75.2031 21.2585C74.9675 21.0506 74.5514 20.9466 73.9549 20.9466H72.2254V23.262Z" fill="#D0D3D6"/>
<path d="M87.2625 23.831H83.3825L82.8486 25.7176H79.3672L83.5104 14.2891H87.2249L91.3681 25.7176H87.8039L87.2625 23.831ZM86.5482 21.3598L85.33 17.2514L84.1194 21.3598H86.5482Z" fill="#D0D3D6"/>
<path d="M92.4766 14.2891H95.6573L99.8079 20.6114V14.2891H103.019V25.7176H99.8079L95.6798 19.442V25.7176H92.4766V14.2891Z" fill="#D0D3D6"/>
<path d="M105.312 14.2891H108.719V18.6079L112.29 14.2891H116.817L112.802 18.6001L116.998 25.7176H112.802L110.478 21.0168L108.719 22.9267V25.7176H105.312V14.2891Z" fill="#D0D3D6"/>
</svg>
