<svg width="50" height="40" viewBox="0 0 50 40" fill="none" xmlns="http://www.w3.org/2000/svg">
<path d="M18.5625 27.8189V13.6484H23.8774C26.0135 13.6484 27.5945 13.9428 28.6205 14.5399C29.6381 15.137 30.1511 16.0536 30.1511 17.3067C30.1511 18.1393 29.8988 18.8205 29.3942 19.3503C28.8896 19.8801 28.1327 20.2585 27.1236 20.494C28.2925 20.7042 29.1503 21.0911 29.7138 21.663C30.2772 22.2264 30.5631 22.9917 30.5631 23.942C30.5631 25.2371 30.1006 26.2042 29.1839 26.8518C28.2673 27.4994 26.8797 27.8189 25.0211 27.8189H18.5625ZM22.3637 19.3923H23.8858C24.7268 19.3923 25.3491 19.2662 25.736 19.0055C26.1228 18.7448 26.3246 18.3411 26.3246 17.7861C26.3246 17.2646 26.1228 16.8694 25.7107 16.6003C25.2987 16.3396 24.6932 16.205 23.8858 16.205H22.3637V19.3923ZM22.3637 25.2455H23.8858C24.8361 25.2455 25.5257 25.111 25.9546 24.8335C26.3751 24.5643 26.5853 24.1186 26.5853 23.5047C26.5853 22.9328 26.3667 22.5124 25.9294 22.2432C25.4921 21.9741 24.8109 21.8312 23.8858 21.8312H22.3637V25.2455Z" fill="#D0D3D6"/>
<path d="M32.2734 27.8189V13.6484H38.7657C40.6159 13.6484 42.0203 14.0269 42.9706 14.8006C43.9209 15.5659 44.4002 16.6928 44.4002 18.1729C44.4002 19.6278 43.9293 20.7631 42.9874 21.5705C42.0455 22.3778 40.7336 22.7899 39.0516 22.7899H36.2176V27.8273H32.2734V27.8189ZM36.2092 20.0062H37.9584C38.7994 20.0062 39.4133 19.8549 39.8169 19.5437C40.2206 19.2325 40.414 18.7616 40.414 18.114C40.414 17.4833 40.2206 17.0208 39.8253 16.7264C39.4301 16.4321 38.8078 16.2891 37.9584 16.2891H36.2092V20.0062Z" fill="#D0D3D6"/>
<path d="M46.0781 27.8189V13.6484H49.997V27.8189H46.0781Z" fill="#D0D3D6"/>
<path fill-rule="evenodd" clip-rule="evenodd" d="M0.130448 25.6177C0.256593 25.9457 0.517293 26.2569 0.912549 26.568C1.49282 27.0222 5.86586 29.932 7.18618 30.8066L7.48052 31L7.7244 30.8402C7.95146 30.6888 13.2664 27.081 13.9139 26.568C14.3092 26.2569 14.5615 25.9457 14.696 25.6177C14.8979 25.0879 14.8222 24.6758 14.7633 24.3731V24.3563C14.7381 24.2133 13.8719 18.974 13.4009 16.4847C11.4919 16.182 9.54089 16.0222 7.5478 16.0222C7.50575 16.0222 7.4637 16.0222 7.41324 16.0222V29.5956C4.74737 27.8463 2.15718 26.156 1.72829 25.8196C1.46759 25.6177 1.3078 25.4327 1.24053 25.2645C1.1312 24.9954 1.17325 24.7599 1.22371 24.5245C1.25735 24.3647 2.19082 18.7469 2.64495 16.3586C2.23287 16.409 1.92171 16.4679 1.51805 16.5352C1.0471 19.0329 0.0968088 24.2133 0.0715797 24.3647C0.00430214 24.6758 -0.0713847 25.0879 0.130448 25.6177ZM3.60365 18.4778H4.07459V18.7469V18.8815H4.48667V18.4526H4.98284V18.8815H5.3781V18.4694H5.84904V19.5291H3.60365V18.4778ZM3.97368 19.7141H5.47901L6.00041 23.8937H3.45228L3.97368 19.7141ZM3.16635 24.0872H6.27793V25.1384H5.43696V24.8693H3.99891V25.1384H3.15794V24.0872H3.16635ZM4.37734 21.9931H5.09217V21.7324H4.37734V21.9931ZM5.08376 20.9083H4.36893V21.169H5.08376V20.9083ZM4.36893 22.8173H5.08376V22.5566H4.36893V22.8173ZM3.9064 14.357C3.61206 14.3907 3.41023 14.4243 3.14112 14.5084C3.09907 14.7439 3.01497 15.2064 2.93928 15.568C4.41939 15.3578 5.93314 15.2401 7.47211 15.2401C8.91858 15.2401 10.3398 15.3494 11.7442 15.5344C11.6685 15.1812 11.5929 14.7439 11.5508 14.5084C11.3658 14.4327 11.1219 14.3823 10.8108 14.3654C11.7947 14.13 12.3918 13.4404 12.3918 12.776C12.3918 11.9014 11.7022 11.2034 9.99502 11.0268C9.38952 10.5558 8.54855 10.354 7.82532 10.2951C8.00192 10.169 8.12807 9.95031 8.12807 9.70642C8.12807 9.31116 7.73281 9 7.35437 9C6.97594 9 6.58068 9.31957 6.58068 9.70642C6.58068 9.95031 6.69842 10.169 6.88343 10.2951C6.15179 10.354 5.31923 10.5558 4.71373 11.0268C3.01497 11.195 2.31697 11.893 2.31697 12.776C2.31697 13.4404 2.92247 14.13 3.9064 14.357ZM10.3566 11.565C10.3566 11.565 11.6517 11.6827 11.6349 12.8096C11.6265 13.7011 10.6594 14.1888 9.43157 14.0375C11.1219 13.3479 10.7603 12.0443 10.3566 11.565ZM7.74963 10.9006C8.83448 11.0015 9.67545 11.6743 9.67545 12.5069C9.67545 13.3479 8.80925 14.0375 7.69917 14.1132C7.92623 13.8104 8.07761 13.1965 8.07761 12.4732C8.08602 11.8089 7.95146 11.2286 7.74963 10.9006ZM6.95912 10.9006C6.7657 11.2202 6.63114 11.8005 6.63114 12.4732C6.63114 13.1965 6.79092 13.8104 7.00958 14.1132C5.8995 14.0291 5.0333 13.3479 5.0333 12.5069C5.0333 11.6743 5.87427 11.0015 6.95912 10.9006ZM4.36052 11.565C3.95686 12.0443 3.59524 13.3479 5.28559 14.0291C4.05777 14.1804 3.09066 13.7011 3.08225 12.8012C3.06543 11.6827 4.36052 11.565 4.36052 11.565ZM10.7603 26.0298C10.7771 25.9794 10.7855 25.9289 10.8023 25.8784C10.8864 25.8616 10.9705 25.8532 11.0546 25.8364C11.2144 25.7355 11.1976 25.4075 11.3574 25.315C11.4331 25.2729 11.4667 25.3318 11.5004 25.3739C11.5508 25.2645 11.534 25.1047 11.5844 24.9786C11.719 24.659 12.0049 24.4824 11.8956 23.9358C11.8872 23.9274 11.8788 23.919 11.8788 23.9106C11.8283 23.9862 11.8115 24.0367 11.7526 24.0956C11.3406 24.0703 11.4919 23.1453 11.7695 23.0612C11.9713 23.6078 12.8375 23.7676 12.888 23.0443C12.8964 22.9014 12.7786 22.6995 12.6357 22.4725C12.6945 22.2454 12.787 22.0604 12.8711 21.9427C12.9216 21.8754 12.6357 22.0015 12.5011 22.2538C12.56 22.0099 12.6609 21.8081 12.745 21.682C12.7954 21.6147 12.5432 21.724 12.4002 21.9511C12.4591 21.7072 12.56 21.5138 12.6441 21.3876C12.6945 21.3119 12.3834 21.4549 12.2572 21.7408C12.2152 21.5979 12.1815 21.4549 12.1899 21.3119C12.1984 20.9671 12.2993 20.2859 12.4338 19.7309C12.4675 19.5711 12.5516 19.2768 12.7786 19.1506C12.602 19.1086 12.2993 19.2683 12.3077 19.6132C12.2572 19.1086 11.8788 18.9404 11.6854 18.9067C12.3077 19.4534 11.7947 20.7064 11.8031 21.2951C11.8115 22.0352 12.6945 22.8089 12.56 23.0696C12.3581 23.4564 11.9797 22.7164 11.8704 22.4809C11.7526 22.2454 11.349 21.8754 11.0546 21.5895C11.2312 21.4633 11.4247 21.1521 11.4331 20.8157C11.4583 20.8494 11.4919 20.883 11.5172 20.9167C11.5256 20.9167 11.5424 20.9167 11.5592 20.9167C11.5172 20.6055 11.6433 20.2859 11.5424 20C11.5929 20 11.6349 20 11.6854 20C11.6433 18.6292 10.651 18.9151 10.1716 19.0329C10.1632 19.0581 10.1548 19.0833 10.1464 19.1086C10.2137 19.1086 10.2725 19.117 10.3398 19.117C10.3398 19.1254 10.3398 19.1254 10.3398 19.1254C10.2894 19.1422 10.2389 19.159 10.1884 19.1758C10.1632 19.2683 10.1884 19.487 10.3062 19.5963C10.3482 19.4954 10.3566 19.4534 10.4491 19.4113C10.5669 19.4702 10.6426 19.672 10.5669 19.857C10.4828 19.8907 10.3987 19.8739 10.365 19.7729H10.3566C10.3062 19.9748 10.323 20.185 10.4744 20.3196C10.4828 20.1514 10.5416 20.0757 10.6846 20.0841C10.6426 20.4962 10.365 20.4037 10.0875 20.513C9.57453 20.7148 9.43157 21.4885 8.96903 21.6147C9.01108 21.7997 9.18769 21.9511 9.32224 22.0184C9.25496 22.1445 8.96903 22.5398 8.84289 22.5566C8.79243 22.4893 8.75038 22.422 8.66629 22.3968C8.58219 22.422 8.5065 22.4388 8.4224 22.4641C8.41399 22.4893 8.39717 22.5229 8.38036 22.5482C8.41399 22.5566 8.44763 22.565 8.48968 22.5734C8.48968 22.6239 8.48127 22.6743 8.48127 22.7248C8.54855 22.7416 8.64106 22.7416 8.69992 22.7752C8.69992 22.7921 8.70833 22.8005 8.70833 22.8173C8.63265 22.8005 8.55696 22.7668 8.47286 22.792C8.4224 22.8257 8.31308 23.0275 8.33831 23.1116C8.33831 23.12 8.33831 23.1284 8.33831 23.1369C8.36354 23.1116 8.38036 23.0948 8.40558 23.078C8.45604 23.0948 8.45604 23.1032 8.46445 23.1621C8.48127 23.1705 8.49809 23.1789 8.51491 23.1873C8.57378 23.1284 8.64106 23.0696 8.69992 23.0107H8.70833C8.71674 23.0191 8.71674 23.0359 8.72515 23.0443C8.66629 23.1032 8.61583 23.1621 8.55696 23.2209C8.54855 23.3219 8.53173 23.4312 8.54855 23.5658C8.5906 23.5321 8.62424 23.4901 8.66629 23.4564C8.81766 23.5994 8.91017 23.4144 8.99426 23.2714C9.04472 23.3219 9.10359 23.3303 9.17087 23.3303C9.17087 23.3639 9.17928 23.406 9.17928 23.4396H9.18769C9.43157 23.2041 9.12041 23.0023 9.40634 22.7164C9.54089 22.8005 9.64181 22.7752 9.77637 22.7164C9.80159 22.6827 9.81841 22.6491 9.84364 22.6154C9.76796 22.5902 9.72591 22.5566 9.69227 22.4809C9.69227 22.4304 9.69227 22.422 9.70909 22.3968C9.76795 22.2706 9.9782 22.2875 10.0959 22.3295C10.4071 22.4557 10.5921 22.7332 10.8192 22.9602C10.8023 23.2462 10.7687 23.6162 10.8276 23.8769C10.8949 24.1376 11.0799 24.2554 11.0126 24.5833C11.1303 24.5749 11.1892 24.5161 11.2312 24.4235C11.2733 24.4235 11.3237 24.432 11.3658 24.432C11.2481 24.6506 11.0378 25.0711 10.8023 25.13C10.5921 25.1888 10.508 24.9281 10.3062 24.9954C10.2809 25.0206 10.2473 25.0543 10.2221 25.0795C10.1296 25.13 10.1043 25.0627 10.0455 25.1804C10.0455 25.1888 10.0455 25.2057 10.0455 25.2141C10.0791 25.2141 10.1128 25.2225 10.1548 25.2225C10.1632 25.2645 10.1716 25.315 10.18 25.357C10.2389 25.2982 10.2894 25.2309 10.3482 25.172C10.3482 25.1804 10.3566 25.1888 10.3566 25.1972C10.2725 25.2729 10.2137 25.3907 10.1548 25.5C10.1464 25.5757 10.1548 25.6346 10.1632 25.7102C10.1716 25.7187 10.1716 25.7187 10.18 25.7187C10.1968 25.685 10.2221 25.6514 10.2389 25.6177C10.2557 25.6177 10.2641 25.6177 10.2809 25.6177C10.2978 25.643 10.3146 25.6682 10.3314 25.6934C10.3482 25.6934 10.3566 25.6934 10.3735 25.6934C10.3903 25.5925 10.4155 25.4832 10.4323 25.3823C10.4407 25.3739 10.4491 25.3654 10.4576 25.357C10.4576 25.3654 10.466 25.3654 10.466 25.3654C10.4071 25.5336 10.3819 25.7102 10.4239 25.8953C10.4323 25.9037 10.4491 25.9205 10.466 25.9289C10.4744 25.9037 10.4828 25.87 10.4912 25.8448C10.5332 25.8028 10.5585 25.7943 10.6426 25.7943C10.651 25.6598 10.6089 25.5421 10.7014 25.458C10.6426 25.5925 10.6594 25.7943 10.693 25.9541C10.7183 25.9962 10.7351 26.013 10.7603 26.0298ZM10.6005 19.2599C10.6005 19.2011 10.6005 19.1506 10.6005 19.0917C10.7183 19.0833 10.8696 19.0749 10.9453 19.1254C10.836 19.1758 10.7183 19.2179 10.6005 19.2599ZM10.8276 24.331V24.3226C10.7098 24.2301 10.3062 23.7339 10.4323 23.448C10.4828 23.2882 10.6342 23.3303 10.7183 23.406C10.7267 23.3219 10.7351 23.2294 10.7351 23.1453C10.6594 23.0275 10.466 22.9687 10.5416 22.7584C10.0287 22.3463 10.0623 23.0443 9.62499 23.0359C9.64181 23.1957 9.7175 23.3135 9.86046 23.3219C9.86046 23.6498 9.98661 23.8769 10.1296 24.0115C10.1296 24.0199 10.138 24.0367 10.138 24.0451C9.94456 24.0703 9.70068 24.104 9.55771 23.9862C9.38952 23.8433 9.34747 23.633 9.05313 23.6498C9.05313 23.6583 9.05313 23.6583 9.05313 23.6583C9.06995 23.6835 9.08677 23.7087 9.10359 23.7339C9.112 23.776 9.08677 23.7928 9.07836 23.8433C9.07836 23.8433 9.07836 23.8517 9.07836 23.8601C9.13723 23.8769 9.18769 23.8937 9.24655 23.9106C9.25496 23.9106 9.25496 23.9106 9.26337 23.9106C9.26337 23.9274 9.26337 23.9442 9.26337 23.961C9.10359 23.9274 8.9354 23.9358 8.87653 24.1124C8.87653 24.1208 8.87653 24.1208 8.87653 24.1292C8.91017 24.1292 8.94381 24.1292 8.97744 24.1292C9.00267 24.1797 9.0279 24.2217 9.03631 24.3058C9.09518 24.2385 9.15405 24.1713 9.21292 24.104H9.22132C9.18769 24.289 9.03631 24.3395 9.01949 24.5665C9.01949 24.5749 9.01949 24.5749 9.01949 24.5749C9.05313 24.5749 9.09518 24.5413 9.13723 24.5161C9.17087 24.5497 9.20451 24.5833 9.22973 24.617C9.27178 24.5749 9.2886 24.4656 9.30542 24.3899C9.32224 24.3899 9.33065 24.3899 9.34747 24.3899C9.32224 24.5245 9.24655 24.6927 9.29701 24.8272C9.31383 24.844 9.33065 24.8693 9.34747 24.8861C9.36429 24.844 9.3727 24.802 9.38952 24.7599C9.44839 24.7179 9.49044 24.802 9.59135 24.7599C9.70909 24.7095 9.70909 24.5497 9.87728 24.5497C9.91933 24.6002 9.94456 24.6254 9.94456 24.7347C10.0539 24.7011 10.0875 24.5917 10.1884 24.5581C10.5164 24.4488 10.5921 24.6086 10.8276 24.331ZM9.9782 19.958C10.1968 19.9327 10.2725 19.6888 10.4996 19.6804C10.4996 19.672 10.4996 19.672 10.4996 19.6636C10.4407 19.6552 10.3987 19.6384 10.3314 19.6552C10.2221 19.6804 9.7175 19.958 9.91933 19.5291C9.75955 19.5963 9.70068 19.9832 9.9782 19.958ZM8.43081 21.0596C8.43081 21.068 8.43081 21.068 8.43081 21.068C8.48127 21.1353 8.60742 21.1185 8.69992 21.1185C8.73356 21.068 8.7672 21.0092 8.80925 20.9587C8.81766 20.9587 8.82607 20.9587 8.82607 20.9587C8.9354 21.1017 9.05313 21.2446 9.16246 21.3876C9.17087 21.3876 9.17928 21.3876 9.17928 21.3876C9.2886 21.2867 9.36429 21.1437 9.44839 21.0092C9.41475 20.7989 9.17087 20.7064 9.112 20.5046C9.03631 20.2775 9.26337 19.958 8.97744 19.7982C8.97744 19.9159 8.92699 19.9411 8.91858 20.0084C8.92699 20.0757 8.9354 20.143 8.9354 20.2102C8.9354 20.2187 8.9354 20.2271 8.9354 20.2355H8.92699C8.88494 20.185 8.89335 20.1093 8.85971 20.0336C8.82607 19.958 8.64947 19.8654 8.57378 19.8486C8.57378 19.857 8.57378 19.857 8.57378 19.8654C8.59901 19.9495 8.58219 20.0168 8.5906 20.0841C8.63265 20.1514 8.6747 20.2271 8.71674 20.2943C8.71674 20.3112 8.71674 20.328 8.71674 20.3448C8.70833 20.3448 8.69992 20.3448 8.69151 20.3448C8.64947 20.2943 8.59901 20.2355 8.55696 20.185C8.48968 20.1514 8.35513 20.185 8.28785 20.2102C8.31308 20.2439 8.34672 20.2775 8.37195 20.3112C8.43922 20.4205 8.75879 20.7905 8.43081 21.0596ZM10.3903 18.2424C10.4828 18.1667 10.6173 18.133 10.7267 18.1246C10.7014 18.1078 10.6762 18.0742 10.6762 18.0321C10.6762 17.9732 10.7351 17.9228 10.7939 17.9228C10.8528 17.9228 10.9117 17.9732 10.9117 18.0321C10.9117 18.0742 10.8949 18.1078 10.8612 18.1246C10.979 18.133 11.1051 18.1667 11.1976 18.2424C11.4667 18.2676 11.576 18.3769 11.576 18.5115C11.576 18.6292 11.4667 18.7469 11.2817 18.7722C11.2733 18.8142 11.2733 18.8647 11.2649 18.8899C11.1556 18.8563 10.9537 18.8394 10.7855 18.8394C10.6257 18.8394 10.3987 18.8647 10.3062 18.8899C10.3062 18.8647 10.2978 18.8142 10.2894 18.7722C10.1043 18.7469 9.99502 18.6292 9.99502 18.5115C10.0202 18.3769 10.1212 18.2676 10.3903 18.2424ZM11.4751 18.5199C11.4751 18.3685 11.2901 18.3517 11.2901 18.3517C11.349 18.419 11.3994 18.5956 11.1556 18.6881C11.3322 18.7049 11.4751 18.6376 11.4751 18.5199ZM11.1724 18.4694C11.1724 18.3517 11.0378 18.2592 10.8696 18.2508C10.9033 18.2928 10.9201 18.3769 10.9201 18.4694C10.9201 18.5703 10.8949 18.6544 10.8612 18.6965C11.0294 18.6797 11.1724 18.5872 11.1724 18.4694ZM10.7519 18.6965C10.7183 18.6544 10.693 18.5703 10.693 18.4694C10.693 18.3769 10.7098 18.2928 10.7435 18.2508C10.5753 18.2676 10.4407 18.3601 10.4407 18.4694C10.4407 18.5872 10.5753 18.6797 10.7519 18.6965ZM10.4576 18.6881C10.2053 18.5956 10.2641 18.4106 10.323 18.3433C10.323 18.3433 10.1296 18.3601 10.138 18.5115C10.138 18.646 10.2809 18.7133 10.4576 18.6881Z" fill="#D0D3D6"/>
</svg>
